<?xml version="1.0" encoding="utf-8"?>
<!-- Generator: Adobe Illustrator 23.0.2, SVG Export Plug-In . SVG Version: 6.00 Build 0)  -->
<svg version="1.1" id="Layer_1" xmlns="http://www.w3.org/2000/svg" xmlns:xlink="http://www.w3.org/1999/xlink" x="0px" y="0px"
	 viewBox="0 0 270.04 354.75" style="enable-background:new 0 0 270.04 354.75;" xml:space="preserve">
<style type="text/css">
	.st0{fill:#1BA200;}
	.st1{fill:#FDE5CC;}
	.st2{fill:none;stroke:#000000;stroke-width:2.2599;stroke-miterlimit:10;}
	.st3{fill:#FFFFFF;}
</style>
<path class="st0" d="M58.97,193.26c0,0-45.96,37.29-45.96,53.11s27.12,36.16,49.72,18.08l0-25.77c0,0-15.81-8.13-22.59-5.87
	c-6.78,2.26,2.26-4.52,2.26-4.52l4.52,49.72c0,0-4.52,42.94,2.26,42.94s31.64,18.08,27.12-20.34c11.3,11.3,40.68,9.04,40.68,9.04
	l6.78,9.04h27.12c0,0,4.52-15.82,20.34-15.82s22.6-2.26,22.6-2.26l11.3,6.78l4.52,15.82c0,0,18.08-6.78,18.08-11.3s0-33.9,0-33.9
	s38.42-18.08,31.64-31.64c-6.78-13.56-37.83-47.02-37.83-47.02s-43.53,22.16-84.21,19.9S58.97,193.26,58.97,193.26z"/>
<path d="M202.67,200.48l-2.09,21.22l0.06,40.49c0,0,15.82,9.04,18.08,0c2.26-9.04,0-51.42,0-51.42S216,197.52,202.67,200.48z"/>
<path d="M62.5,195.96l-2.09,21.22l0.06,40.49c0,0,15.82,9.04,18.08,0c2.26-9.04,0-51.42,0-51.42S75.83,193,62.5,195.96z"/>
<path class="st1" d="M137.31,219.25c0,0-56.5,4.52-92.66-40.68c-4.52,4.52-20.34,15.82-29.38-15.82s9.04-33.9,9.04-33.9
	s22.6,11.3,22.6,15.82s13.56-6.78,13.56-6.78s128.82,13.56,149.16,2.26c4.52,13.56,6.78,20.34,6.78,20.34s20.34-27.12,24.86-27.12
	s49.72,22.6-11.3,51.98C220.92,201.17,200.58,219.25,137.31,219.25z"/>
<path d="M29.06,131.35c0,0,11.07-81.59,94.69-81.59c9.04-18.08,20.34-22.6,20.34-22.6s-18.08,22.6-4.52,22.6
	c13.56,0,83.62,0,88.14,42.94s13.56,40.68,13.56,40.68L216.4,160.5l-6.78-17.54c0,0-113,8.5-149.16-5.06
	c-6.78,9.04-13.56,6.78-13.56,6.78L29.06,131.35z"/>
<circle class="st2" cx="114.71" cy="171.79" r="20.34"/>
<circle class="st2" cx="161.03" cy="172.92" r="20.34"/>
<line class="st2" x1="135.05" y1="171.79" x2="140.7" y2="171.79"/>
<line class="st2" x1="94.37" y1="170.4" x2="46.91" y2="144.68"/>
<line class="st2" x1="181.37" y1="172.92" x2="215.72" y2="158.45"/>
<path class="st1" d="M53.69,214.73c0,0-15.82,18.08-2.26,24.86S80.81,221.51,53.69,214.73z"/>
<path class="st1" d="M222.44,214.55c-15.15-0.41-18.98,28.81,8.46,23.48C230.91,238.04,237.6,214.97,222.44,214.55"/>
<path class="st2" d="M121.49,201.17c0,0,22.6,6.78,33.9,0"/>
<line class="st2" x1="137.31" y1="219.25" x2="135.05" y2="318.69"/>
<circle cx="130.53" cy="232.81" r="2.26"/>
<circle cx="114.71" cy="171.79" r="13.56"/>
<circle cx="130.53" cy="255.41" r="2.26"/>
<circle cx="130.53" cy="275.75" r="2.26"/>
<circle cx="159.9" cy="171.79" r="13.56"/>
<circle class="st3" cx="114.71" cy="171.79" r="9.04"/>
<circle class="st3" cx="159.9" cy="171.79" r="9.04"/>
<circle cx="114.71" cy="171.79" r="4.52"/>
<circle cx="159.9" cy="171.79" r="4.52"/>
<circle class="st3" cx="116.97" cy="169.54" r="2.26"/>
<circle class="st3" cx="162.16" cy="169.54" r="2.26"/>
<path d="M113.99,336.77H70.23c-4.12,0-7.5-3.38-7.5-7.5v-23.42c0-4.12,3.37-7.5,7.5-7.5h43.76c4.12,0,7.5,3.37,7.5,7.5v23.42
	C121.49,333.4,118.11,336.77,113.99,336.77z"/>
<path d="M202.12,339.03h-43.76c-4.12,0-7.5-3.38-7.5-7.5v-23.42c0-4.12,3.38-7.5,7.5-7.5h43.76c4.12,0,7.5,3.38,7.5,7.5v23.42
	C209.62,335.65,206.25,339.03,202.12,339.03z"/>
</svg>
