<?xml version="1.0" encoding="utf-8"?>
<!-- Generator: Adobe Illustrator 23.0.2, SVG Export Plug-In . SVG Version: 6.00 Build 0)  -->
<svg version="1.1" id="Layer_1" xmlns="http://www.w3.org/2000/svg" xmlns:xlink="http://www.w3.org/1999/xlink" x="0px" y="0px"
	 viewBox="0 0 243.01 304.07" style="enable-background:new 0 0 243.01 304.07;" xml:space="preserve">
<style type="text/css">
	.st0{fill:#FF17C5;}
	.st1{fill:#FDE5CC;}
	.st2{fill:none;stroke:#000000;stroke-width:1.9235;stroke-miterlimit:10;}
	.st3{fill:#E7001F;stroke:#000000;stroke-width:1.9235;stroke-miterlimit:10;}
	.st4{fill:#FFFFFF;}
</style>
<path class="st0" d="M62.72,150.5c0,0-39.12,31.74-39.12,45.2s23.08,30.78,42.32,15.39l0-21.93c0,0-13.46-6.92-19.23-5
	s1.92-3.85,1.92-3.85l3.85,42.32c0,0-3.85,36.55,1.92,36.55s26.93,15.39,23.08-17.31c9.62,9.62,34.62,7.69,34.62,7.69l5.77,7.69
	h23.08c0,0,3.85-13.46,17.31-13.46c13.46,0,19.23-1.92,19.23-1.92l9.62,5.77l3.85,13.46c0,0,15.39-5.77,15.39-9.62s0-28.85,0-28.85
	s32.7-15.39,26.93-26.93c-5.77-11.54-32.2-40.02-32.2-40.02s-37.05,18.86-71.67,16.94S62.72,150.5,62.72,150.5z"/>
<path d="M185.02,156.64l-1.78,18.06l0.05,34.47c0,0,13.46,7.69,15.39,0c1.92-7.69,0-43.76,0-43.76S196.37,154.12,185.02,156.64z"/>
<path d="M65.72,152.79l-1.78,18.06l0.05,34.47c0,0,13.46,7.69,15.39,0c1.92-7.69,0-43.76,0-43.76S77.06,150.27,65.72,152.79z"/>
<path class="st1" d="M129.39,172.62c0,0-48.09,3.85-78.86-34.62c-3.85,3.85-17.31,13.46-25.01-13.46s7.69-28.85,7.69-28.85
	s19.23,9.62,19.23,13.46c0,3.85,11.54-5.77,11.54-5.77s109.64,11.54,126.95,1.92c3.85,11.54,5.77,17.31,5.77,17.31
	s17.31-23.08,21.16-23.08s42.32,19.23-9.62,44.24C200.56,157.23,183.25,172.62,129.39,172.62z"/>
<path d="M37.26,97.8c0,0,9.42-69.44,80.59-69.44c7.69-15.39,17.31-19.23,17.31-19.23s-15.39,19.23-3.85,19.23s71.17,0,75.02,36.55
	s11.54,34.62,11.54,34.62l-21.16,23.08l-5.77-14.62c0,0-96.17,6.93-126.95-4.62c-5.77,7.69-11.54,5.77-11.54,5.77L37.26,97.8z"/>
<circle class="st2" cx="110.15" cy="132.23" r="17.31"/>
<circle class="st2" cx="149.59" cy="133.19" r="17.31"/>
<line class="st2" x1="127.47" y1="132.23" x2="132.27" y2="132.23"/>
<line class="st2" x1="92.84" y1="131.04" x2="52.45" y2="109.15"/>
<line class="st2" x1="166.9" y1="133.19" x2="196.13" y2="120.87"/>
<path class="st1" d="M58.22,168.77c0,0-13.46,15.39-1.92,21.16C67.84,195.7,81.3,174.54,58.22,168.77z"/>
<path class="st1" d="M201.85,168.62c-12.9-0.35-16.15,24.52,7.2,19.99C209.05,188.61,214.75,168.97,201.85,168.62"/>
<path class="st3" d="M144.78,157.23c-9.62,5.77-28.85,0-28.85,0l13.35-0.96c0,0,1.99,1.84,5.53,0
	C138.35,154.43,144.78,157.23,144.78,157.23z"/>
<line class="st2" x1="129.39" y1="172.62" x2="127.47" y2="257.25"/>
<circle cx="123.62" cy="184.16" r="1.92"/>
<circle cx="110.15" cy="132.23" r="11.54"/>
<circle cx="123.62" cy="203.4" r="1.92"/>
<circle cx="123.62" cy="220.71" r="1.92"/>
<circle cx="148.62" cy="132.23" r="11.54"/>
<circle class="st4" cx="110.15" cy="132.23" r="7.69"/>
<circle class="st4" cx="148.62" cy="132.23" r="7.69"/>
<circle cx="110.15" cy="132.23" r="3.85"/>
<circle cx="148.62" cy="132.23" r="3.85"/>
<circle class="st4" cx="112.08" cy="130.31" r="1.92"/>
<circle class="st4" cx="150.55" cy="130.31" r="1.92"/>
<path d="M108.42,272.64H73.41c-4.12,0-7.5-3.38-7.5-7.5v-17.7c0-4.12,3.38-7.5,7.5-7.5h35.01c4.12,0,7.5,3.38,7.5,7.5v17.7
	C115.92,269.27,112.55,272.64,108.42,272.64z"/>
<path d="M183.44,274.56h-35.01c-4.12,0-7.5-3.38-7.5-7.5v-17.7c0-4.12,3.37-7.5,7.5-7.5h35.01c4.12,0,7.5,3.38,7.5,7.5v17.7
	C190.94,271.19,187.57,274.56,183.44,274.56z"/>
<circle cx="65.91" cy="45.86" r="21.91"/>
<circle cx="194.28" cy="45.86" r="21.91"/>
</svg>
