<?xml version="1.0" encoding="utf-8"?>
<!-- Generator: Adobe Illustrator 23.0.2, SVG Export Plug-In . SVG Version: 6.00 Build 0)  -->
<svg version="1.1" id="Layer_1" xmlns="http://www.w3.org/2000/svg" xmlns:xlink="http://www.w3.org/1999/xlink" x="0px" y="0px"
	 viewBox="0 0 1276 1029" style="enable-background:new 0 0 1276 1029;" xml:space="preserve">
<style type="text/css">
	.st0{fill:#FAECFC;}
	.st1{fill:#FFFFFF;stroke:#000000;stroke-miterlimit:10;}
	.st2{fill:#FFFFFF;stroke:#000000;stroke-width:3;stroke-miterlimit:10;}
	.st3{fill:#FFDB45;}
	.st4{fill:#76FF00;}
	.st5{fill:#0056FF;}
	.st6{fill:#B90077;}
	.st7{fill:none;stroke:#000000;stroke-width:5.1901;stroke-miterlimit:10;}
	.st8{fill:none;stroke:#000000;stroke-width:7.8309;stroke-miterlimit:10;}
	.st9{fill:none;stroke:#000000;stroke-width:7.8113;stroke-miterlimit:10;}
	.st10{fill:#FF502E;}
	.st11{fill:#FF322E;stroke:#FFFFFF;stroke-miterlimit:10;}
	.st12{fill:#5C2500;stroke:#000000;stroke-width:0.287;stroke-miterlimit:10;}
	.st13{fill:#002D73;}
	.st14{fill:#001A5C;stroke:#000000;stroke-width:0.287;stroke-miterlimit:10;}
	.st15{fill:#170B00;}
	.st16{fill:#E9A07B;}
	.st17{stroke:#000000;stroke-width:0.4082;stroke-miterlimit:10;}
	.st18{fill:#5C4A00;}
	.st19{fill:#FFFFFF;}
	.st20{opacity:0.3;}
	.st21{opacity:0.2;}
	.st22{fill:#FF8BAA;}
	.st23{fill:#FFFFFF;stroke:#000000;stroke-width:0.287;stroke-miterlimit:10;}
	.st24{fill:#D0A200;}
	.st25{fill:#FF5445;}
	.st26{fill:#2EFCFF;}
	.st27{fill:#4CAA39;stroke:#000000;stroke-miterlimit:10;}
	.st28{fill:#A9A4BC;}
	.st29{fill:#D02100;}
	.st30{fill:#FAECFC;stroke:#000000;stroke-miterlimit:10;}
	.st31{fill:#E0D183;stroke:#000000;stroke-miterlimit:10;}
	.st32{fill:#297300;}
	.st33{fill:#E0D183;}
	.st34{fill:none;stroke:#000000;stroke-width:3;stroke-miterlimit:10;}
	.st35{font-family:'ArialMT';}
	.st36{font-size:12px;}
	.st37{fill:#F5FCFA;}
	.st38{fill:#D0FFF5;}
	.st39{fill:none;stroke:#D0A200;stroke-width:3;stroke-miterlimit:10;}
	.st40{fill:none;stroke:#D0A200;stroke-width:3.8419;stroke-miterlimit:10;}
	.st41{fill:#A8A6A9;}
	.st42{fill:none;stroke:#000000;stroke-width:7.1024;stroke-miterlimit:10;}
	.st43{fill:none;stroke:#000000;stroke-width:7.0847;stroke-miterlimit:10;}
	.st44{fill:#735400;stroke:#000000;stroke-miterlimit:10;}
	.st45{fill:#31A200;}
	.st46{fill:#9EFF73;}
</style>
<rect y="133" class="st0" width="1276" height="875"/>
<rect x="784" y="398" class="st1" width="38" height="49"/>
<rect x="784" y="586" class="st2" width="492" height="155"/>
<rect x="874" y="647" class="st3" width="19" height="23"/>
<rect x="852" y="647" class="st4" width="19" height="23"/>
<rect x="830" y="647" class="st5" width="19" height="23"/>
<rect x="809" y="647" class="st6" width="19" height="23"/>
<rect x="960" y="647" class="st3" width="19" height="23"/>
<rect x="938" y="647" class="st4" width="19" height="23"/>
<rect x="916" y="647" class="st5" width="19" height="23"/>
<rect x="895" y="647" class="st6" width="19" height="23"/>
<rect x="811" y="677" class="st3" width="19" height="23"/>
<rect x="833" y="677" class="st4" width="19" height="23"/>
<rect x="855" y="677" class="st5" width="19" height="23"/>
<rect x="876" y="677" class="st6" width="19" height="23"/>
<rect x="895" y="677" class="st3" width="19" height="23"/>
<rect x="917" y="677" class="st4" width="19" height="23"/>
<rect x="939" y="677" class="st5" width="19" height="23"/>
<rect x="960" y="677" class="st6" width="19" height="23"/>
<rect x="1074" y="647" class="st3" width="19" height="23"/>
<rect x="1052" y="647" class="st4" width="19" height="23"/>
<rect x="1030" y="647" class="st5" width="19" height="23"/>
<rect x="1009" y="647" class="st6" width="19" height="23"/>
<rect x="1160" y="647" class="st3" width="19" height="23"/>
<rect x="1138" y="647" class="st4" width="19" height="23"/>
<rect x="1116" y="647" class="st5" width="19" height="23"/>
<rect x="1095" y="647" class="st6" width="19" height="23"/>
<rect x="1011" y="677" class="st3" width="19" height="23"/>
<rect x="1033" y="677" class="st4" width="19" height="23"/>
<rect x="1055" y="677" class="st5" width="19" height="23"/>
<rect x="1076" y="677" class="st6" width="19" height="23"/>
<rect x="1095" y="677" class="st3" width="19" height="23"/>
<rect x="1117" y="677" class="st4" width="19" height="23"/>
<rect x="1139" y="677" class="st5" width="19" height="23"/>
<rect x="1160" y="677" class="st6" width="19" height="23"/>
<rect x="1190" y="648" class="st3" width="19" height="23"/>
<rect x="1212" y="648" class="st4" width="19" height="23"/>
<rect x="1234" y="648" class="st5" width="19" height="23"/>
<rect x="1255" y="648" class="st6" width="19" height="23"/>
<rect x="1257" y="678" class="st3" width="19" height="23"/>
<rect x="1235" y="678" class="st4" width="19" height="23"/>
<rect x="1213" y="678" class="st5" width="19" height="23"/>
<rect x="1192" y="678" class="st6" width="19" height="23"/>
<rect x="1186.5" y="587.5" class="st7" width="89" height="153"/>
<rect x="783.5" y="585.5" class="st8" width="200" height="155"/>
<rect x="988" y="586" class="st9" width="199" height="155"/>
<rect x="0.5" y="582" class="st2" width="492" height="155"/>
<rect x="383.5" y="643" class="st3" width="19" height="23"/>
<rect x="405.5" y="643" class="st4" width="19" height="23"/>
<rect x="427.5" y="643" class="st5" width="19" height="23"/>
<rect x="448.5" y="643" class="st6" width="19" height="23"/>
<rect x="297.5" y="643" class="st3" width="19" height="23"/>
<rect x="319.5" y="643" class="st4" width="19" height="23"/>
<rect x="341.5" y="643" class="st5" width="19" height="23"/>
<rect x="362.5" y="643" class="st6" width="19" height="23"/>
<rect x="446.5" y="673" class="st3" width="19" height="23"/>
<rect x="424.5" y="673" class="st4" width="19" height="23"/>
<rect x="402.5" y="673" class="st5" width="19" height="23"/>
<rect x="381.5" y="673" class="st6" width="19" height="23"/>
<rect x="362.5" y="673" class="st3" width="19" height="23"/>
<rect x="340.5" y="673" class="st4" width="19" height="23"/>
<rect x="318.5" y="673" class="st5" width="19" height="23"/>
<rect x="297.5" y="673" class="st6" width="19" height="23"/>
<rect x="183.5" y="643" class="st3" width="19" height="23"/>
<rect x="205.5" y="643" class="st4" width="19" height="23"/>
<rect x="227.5" y="643" class="st5" width="19" height="23"/>
<rect x="248.5" y="643" class="st6" width="19" height="23"/>
<rect x="97.5" y="643" class="st3" width="19" height="23"/>
<rect x="119.5" y="643" class="st4" width="19" height="23"/>
<rect x="141.5" y="643" class="st5" width="19" height="23"/>
<rect x="162.5" y="643" class="st6" width="19" height="23"/>
<rect x="246.5" y="673" class="st3" width="19" height="23"/>
<rect x="224.5" y="673" class="st4" width="19" height="23"/>
<rect x="202.5" y="673" class="st5" width="19" height="23"/>
<rect x="181.5" y="673" class="st6" width="19" height="23"/>
<rect x="162.5" y="673" class="st3" width="19" height="23"/>
<rect x="140.5" y="673" class="st4" width="19" height="23"/>
<rect x="118.5" y="673" class="st5" width="19" height="23"/>
<rect x="97.5" y="673" class="st6" width="19" height="23"/>
<rect x="67.5" y="644" class="st3" width="19" height="23"/>
<rect x="45.5" y="644" class="st4" width="19" height="23"/>
<rect x="23.5" y="644" class="st5" width="19" height="23"/>
<rect x="2.5" y="644" class="st6" width="19" height="23"/>
<rect x="0.5" y="674" class="st3" width="19" height="23"/>
<rect x="22.5" y="674" class="st4" width="19" height="23"/>
<rect x="44.5" y="674" class="st5" width="19" height="23"/>
<rect x="65.5" y="674" class="st6" width="19" height="23"/>
<rect x="1" y="583.5" class="st7" width="89" height="153"/>
<rect x="293" y="581.5" class="st8" width="200" height="155"/>
<rect x="89.5" y="582" class="st9" width="199" height="155"/>
<rect x="552" y="772" class="st10" width="165" height="82"/>
<rect x="579" y="789" class="st11" width="118" height="51"/>
<g>
	<path class="st12" d="M598.1,388.1c0,0-10.6,3-7.4,6.9c3.2,3.9,19.7,2.3,19.7,2.3l9.7-4.4l-2.9-10.1"/>
	<path class="st12" d="M643.3,388.5c0,0,10.6,3,7.4,6.9c-3.2,3.9-19.7,2.3-19.7,2.3l-9.7-4.4l2.9-10.1"/>
	<path d="M602.4,304.2l1.8,43.3h35.9v-45.1C640.1,302.4,599.2,300.3,602.4,304.2z"/>
	<path class="st13" d="M607.8,302.3l10.4,24.6l15.1-24.6C633.4,302.3,613,292.3,607.8,302.3z"/>
	<path class="st14" d="M594.6,348.8h51.7v33c0,0-1.3,8.7-12.8,8.7s-13.4-9-13.4-9l-1-17.1l-1.8,18.4c0,0,0.8,8.7-12.4,7.8
		s-10.2-14.7-10.2-14.7L594.6,348.8L594.6,348.8z"/>
	<rect x="600.1" y="343.6" class="st15" width="41.7" height="6.1"/>
	<g id="head">
		<path class="st16" d="M637.8,273.9c0,0,0.3,8.7-2.2,10.2S637.8,273.9,637.8,273.9z"/>
		<path class="st17" d="M617.1,308.5c0,0-17.2,1.2-16.2-32.1c-1.8-1.4-2.6-4.3-2.8-9.5s2.5-20.4,11.2-23c1.7-2.5,5.8-3.2,5.8-3.2
			h6.9c0,0,3.8,3.1,3.8,6.6s2.8,0.3,2.8,0.3s4.3-1.1,5.2-0.2s2.3,2.9,2.2,5.2s2.3,0,2.3,0s-0.2,2.8-1.5,3.8
			c-1.4,1.1,1.5,3.7,1.5,3.7v2.6l1.8,1.1l-1.8,3.4l-0.5,6.7l-2,4.6c0,0-0.2,16.2-2.7,21.4C630.6,305.2,621.8,308,617.1,308.5z"/>
		<path class="st16" d="M602.8,269c0,0-1.2-15.6,14.1-15.2c15.3,0.5,14.9,6.4,14.7,11.8c3.1,2.6,1.4,6.4,1.4,6.4l0.4,6.7
			c0,0-3.3,9.8-6.6,10.6c-1.2-3.5-6.9-5.4-6.9-5.4s-2.2-0.2-3.2,1.1c-0.6-1.8-3.2-1.8-3.2-1.8s-5.7,4-6.4,6.1
			c-0.8,2.2-4.5-6.9-4.3-7.7S601.8,270.8,602.8,269z"/>
		<path d="M604.2,271c0,0,2.9-6.6,9.3-3.8c0.7,0.8-0.7,1-0.7,1S608.1,266,604.2,271z"/>
		<path d="M619.7,268.4c0,0,1.5-1.9,2.7-1.9c1,0,4,0,4,0s3.8,1.4,3.7,4.5c-0.7-1.2-3.6-3.2-3.6-3.2s-4-0.9-5.9,1.3
			C619.9,269.9,619.7,268.4,619.7,268.4z"/>
		<path d="M621.2,271.4c0,0,3.8-2,7.2,0c-1.1,1.3-1.4,2.5-3.6,2.6S621.2,271.4,621.2,271.4z"/>
		<path d="M613.2,270.9c0,0-4-1.5-7.1,0.9c1.2,1.2,1.7,2.3,3.9,2.2C612.2,273.8,613.2,270.9,613.2,270.9z"/>
		<circle class="st18" cx="609.6" cy="272.2" r="1.6"/>
		<circle class="st18" cx="625" cy="272.1" r="1.5"/>
		<circle class="st19" cx="625" cy="272.1" r="0.8"/>
		<circle class="st19" cx="609.6" cy="272.2" r="0.8"/>
		<circle cx="625" cy="272.1" r="0.3"/>
		<circle cx="609.6" cy="272.2" r="0.4"/>
		<g class="st20">
		</g>
		<g class="st20">
		</g>
		<circle cx="614.6" cy="281.6" r="0.6"/>
		<ellipse transform="matrix(0.9557 -0.2942 0.2942 0.9557 -55.4423 194.4496)" cx="618.6" cy="281.5" rx="0.9" ry="0.7"/>
		<g class="st21">
		</g>
		<path d="M622.9,271l0.2-0.6c0,0,0,0.7,0.2,0.6s0.2-0.7,0.2-0.7l0.2,0.6l0.2-0.6v0.4l0.4-0.5l-0.2,0.4l0.5-0.4l-0.2,0.4l0.5-0.4
			l-0.1,0.3l0.5-0.3l-0.1,0.2l0.3-0.1l0.3-0.1l-0.2,0.3c0,0,0.7-0.4,0.6-0.3c-0.1,0.1-0.3,0.3-0.3,0.3l0.4-0.2l-0.2,0.2l0.6-0.1
			l-0.2,0.2c0,0,0.7-0.3,0.6-0.2s-0.3,0.4-0.3,0.4l0.7-0.3l-0.3,0.3l0.6-0.2l-0.4,0.4l0.7-0.3l-0.6,0.4
			C627.6,271.1,625.8,270.3,622.9,271z"/>
		<path d="M612,271.2l-0.2-0.7c0,0,0.1,0.8-0.2,0.7c-0.3-0.1-0.3-0.8-0.3-0.8l-0.2,0.7l-0.3-0.6v0.5l-0.5-0.6l0.2,0.4l-0.5-0.4
			l0.2,0.4l-0.5-0.4l0.1,0.3l-0.6-0.3l0.1,0.2l-0.4-0.1l-0.3-0.1l0.3,0.3c0,0-0.8-0.4-0.7-0.3s0.3,0.3,0.3,0.3l-0.5-0.2l0.2,0.2
			l-0.7-0.1l0.3,0.3c0,0-0.8-0.4-0.7-0.2s0.4,0.4,0.4,0.4l-0.8-0.3l0.4,0.4l-0.7-0.2l0.5,0.4l-0.8-0.3l0.6,0.4
			C606.7,271.7,608.7,270.6,612,271.2z"/>
		<g class="st20">
		</g>
		<g class="st21">
		</g>
		<path class="st22" d="M613.2,289.7c0,0,1.9,1.7,3.5,1.6s4.5-1.6,4.5-1.6S615.7,287.6,613.2,289.7z"/>
		<g class="st20">
		</g>
		<g class="st20">
		</g>
	</g>
	<path class="st16" d="M565.6,319.5c0,0-11.3-0.5-8.7,4.5s6.9,3.5,6.9,3.5s-5.8,5.3-3.7,6.6c2.1,1.3,5.5,12.8,9.3,12.6
		s11.5,1.8,15.2,0s14.9-28.2-3.7-27.6C562.4,319.6,565.6,319.5,565.6,319.5z"/>
	<path class="st16" d="M669.2,336.2c0,0-3.5,18.8-15.3,17.8c-11.9-1,10.1-20.7,10.1-20.7L669.2,336.2z"/>
	<path class="st23" d="M604.9,299.9c0,0-20.9,7.1-23.8,19.1c-2.9,12,24.2,6.5-2.3,27.8c7.1-1.9,9.7-1.9,9.7-1.9V372
		c0,0,16,11.3,20.9,1.6C609,362.4,614.2,305.7,604.9,299.9z"/>
	<path class="st23" d="M633.1,299.9c0,0,22,6.8,24.5,12.7c2.6,5.8,11.6,23.6,11.6,23.6l-14.2,6.5l-1.3-21.4l0.3,49.5
		c0,0-10.5,7.4-22,4.2C633.5,366.9,633.1,299.9,633.1,299.9z"/>
	<rect x="615.3" y="343.6" class="st24" width="9.3" height="6.1"/>
	<circle class="st25" cx="572.3" cy="324.7" r="8.4"/>
	<path class="st19" d="M563.9,325.4c0,0,0.4,7.5,8.4,7.7c5.5-0.1,8.5-4.6,8.4-7.4C577.1,325.6,563.9,325.4,563.9,325.4z"/>
	<path d="M580.4,325.6H564c-0.1,0-0.2-0.1-0.2-0.2v-1.2c0-0.1,0.1-0.2,0.2-0.2h16.4c0.1,0,0.2,0.1,0.2,0.2v1.2
		C580.7,325.5,580.6,325.6,580.4,325.6z"/>
	<circle cx="572.3" cy="324.7" r="2.8"/>
	<circle class="st19" cx="572.3" cy="324.7" r="2"/>
</g>
<path class="st26" d="M112,370c0,0,32.9,40.2,72,38c53-3,78-27,78-42s0-28,0-28s-44,40-69,32s-70-2.6-76.5-14.8
	C110,343,112,370,112,370z"/>
<rect x="1040" y="398" class="st1" width="38" height="49"/>
<rect x="784.5" y="321.5" class="st27" width="292" height="100"/>
<ellipse class="st28" cx="189" cy="329" rx="82" ry="56"/>
<ellipse class="st29" cx="189.5" cy="316.5" rx="60" ry="28"/>
<path class="st28" d="M112,370c0,0,30,41,72,38s71-16,78-42s23,10,23,10v18h-14v28c0,0-35,34-82,32S95,424,112,370z"/>
<path class="st28" d="M116.5,416.8c0,0-21.5,8.2-22.5,30.2s34,7,34,7l11-25L116.5,416.8z"/>
<path class="st28" d="M262,417c0,0,23,12,23,30s-29,12-29,12s5-30-9-30"/>
<path class="st28" d="M107,362c0,0-20,9-17,29s27-1,27-1L107,362z"/>
<rect y="100" class="st30" width="90" height="90"/>
<rect x="-0.5" y="56.5" class="st30" width="90" height="43"/>
<rect x="94" y="86" class="st30" width="88" height="35"/>
<rect x="196.5" y="149.5" class="st31" width="23" height="41"/>
<rect x="316.5" y="145.5" class="st31" width="61" height="45"/>
<rect x="94" y="121" class="st30" width="88" height="69"/>
<rect x="197" y="95" class="st31" width="184" height="61"/>
<rect x="103.5" y="132.5" class="st32" width="34" height="23"/>
<rect x="197" y="78" class="st19" width="82" height="61"/>
<rect x="204" y="95" width="67" height="31"/>
<rect x="215" y="139" class="st19" width="43" height="6"/>
<rect x="395.5" y="152.5" class="st31" width="23" height="41"/>
<rect x="513.5" y="148.5" class="st31" width="61" height="45"/>
<rect x="394" y="98" class="st31" width="184" height="61"/>
<rect x="594" y="57" class="st33" width="75" height="69"/>
<rect x="691" y="57" class="st31" width="82" height="69"/>
<polyline class="st34" points="593.5,56.5 633.5,33.5 668.5,56.5 "/>
<polyline class="st34" points="694.5,56.5 734.5,33.5 769.5,56.5 "/>
<rect x="606.5" y="67.5" class="st19" width="53" height="43"/>
<rect x="706" y="70" class="st19" width="53" height="43"/>
<text transform="matrix(1 0 0 1 623.6318 91.312)" class="st35 st36">A+</text>
<rect x="882" y="55" class="st37" width="392" height="132"/>
<rect x="785" y="45" class="st38" width="91" height="63"/>
<rect x="785" y="45" class="st39" width="91" height="25"/>
<rect x="785.5" y="69.5" class="st40" width="91" height="41"/>
<rect x="969.5" y="107.5" class="st3" width="18.5" height="19.5"/>
<rect x="948.1" y="107.5" class="st4" width="18.5" height="19.5"/>
<rect x="926.7" y="107.5" class="st5" width="18.5" height="19.5"/>
<rect x="906.3" y="107.5" class="st6" width="18.5" height="19.5"/>
<rect x="1053.2" y="107.5" class="st3" width="18.5" height="19.5"/>
<rect x="1031.8" y="107.5" class="st4" width="18.5" height="19.5"/>
<rect x="1010.4" y="107.5" class="st5" width="18.5" height="19.5"/>
<rect x="989.9" y="107.5" class="st6" width="18.5" height="19.5"/>
<rect x="908.3" y="132.9" class="st3" width="18.5" height="19.5"/>
<rect x="929.7" y="132.9" class="st4" width="18.5" height="19.5"/>
<rect x="951.1" y="132.9" class="st5" width="18.5" height="19.5"/>
<rect x="971.5" y="132.9" class="st6" width="18.5" height="19.5"/>
<rect x="990" y="132.9" class="st3" width="18.5" height="19.5"/>
<rect x="1011.4" y="132.9" class="st4" width="18.5" height="19.5"/>
<rect x="1032.8" y="132.9" class="st5" width="18.5" height="19.5"/>
<rect x="1053.2" y="132.9" class="st6" width="18.5" height="19.5"/>
<rect x="1164" y="107.5" class="st3" width="18.5" height="19.5"/>
<rect x="1142.6" y="107.5" class="st4" width="18.5" height="19.5"/>
<rect x="1121.2" y="107.5" class="st5" width="18.5" height="19.5"/>
<rect x="1100.8" y="107.5" class="st6" width="18.5" height="19.5"/>
<rect x="1247.8" y="107.5" class="st3" width="18.5" height="19.5"/>
<rect x="1226.4" y="107.5" class="st4" width="18.5" height="19.5"/>
<rect x="1205" y="107.5" class="st5" width="18.5" height="19.5"/>
<rect x="1184.5" y="107.5" class="st6" width="18.5" height="19.5"/>
<rect x="1102.8" y="132.9" class="st3" width="18.5" height="19.5"/>
<rect x="1124.2" y="132.9" class="st4" width="18.5" height="19.5"/>
<rect x="1145.6" y="132.9" class="st5" width="18.5" height="19.5"/>
<rect x="1166" y="132.9" class="st6" width="18.5" height="19.5"/>
<rect x="1184.5" y="132.9" class="st3" width="18.5" height="19.5"/>
<path class="st41" d="M1209.5,514.5c0,0-13,4-13,35s35,22,35,22s22-7,19-14s8-29,2-34S1216.5,507.5,1209.5,514.5z"/>
<rect x="1205.9" y="132.9" class="st4" width="18.5" height="19.5"/>
<rect x="1227.3" y="132.9" class="st5" width="18.5" height="19.5"/>
<rect x="1247.7" y="132.9" class="st6" width="18.5" height="19.5"/>
<rect x="881.5" y="55.5" class="st42" width="194.5" height="131.1"/>
<rect x="1080.4" y="55.9" class="st43" width="193.6" height="131.1"/>
<ellipse class="st44" cx="1224" cy="537" rx="18" ry="13"/>
<polygon class="st45" points="1187,505 1176,519 1198,519 1201,537 1219.5,525.2 1224,537 1234,534 1245,525 1273,521 1261,505 
	1273,495 1261,486 1261,470 1242,470 1225,453 1209,467 1187,467 1197,485 1172,491 "/>
<polygon class="st46" points="1224.5,510.2 1208.4,520.5 1206.5,509 1196.6,509 1200.5,504 1192.4,496.4 1212.1,491.7 1204,477 
	1212.8,477 1224.5,466.7 1237.9,480 1251,480 1251,491 1256.9,495.4 1247.3,503.4 1254.9,513.5 1240.8,515.5 1229.9,524.4 "/>
<path class="st41" d="M28.5,515.5c0,0-13,4-13,35s35,22,35,22s22-7,19-14s8-29,2-34S35.5,508.5,28.5,515.5z"/>
<ellipse class="st44" cx="43" cy="538" rx="18" ry="13"/>
<polygon class="st45" points="6,506 -5,520 17,520 20,538 38.5,526.2 43,538 53,535 64,526 92,522 80,506 92,496 80,487 80,471 
	61,471 44,454 28,468 6,468 16,486 -9,492 "/>
<polygon class="st46" points="43.5,511.2 27.4,521.5 25.5,510 15.6,510 19.5,505 11.4,497.4 31.1,492.7 23,478 31.8,478 43.5,467.7 
	56.9,481 70,481 70,492 75.9,496.4 66.3,504.4 73.9,514.5 59.8,516.5 48.9,525.4 "/>
</svg>
