<?xml version="1.0" encoding="utf-8"?>
<!-- Generator: Adobe Illustrator 23.0.2, SVG Export Plug-In . SVG Version: 6.00 Build 0)  -->
<svg version="1.1" xmlns="http://www.w3.org/2000/svg" xmlns:xlink="http://www.w3.org/1999/xlink" x="0px" y="0px"
	 viewBox="0 0 70 71" style="enable-background:new 0 0 70 71;" xml:space="preserve">
<style type="text/css">
	.st0{display:none;}
	.st1{display:inline;fill:#FAECFC;}
	.st2{display:inline;fill:#FFFFFF;stroke:#000000;stroke-miterlimit:10;}
	.st3{display:inline;fill:#FFFFFF;stroke:#000000;stroke-width:3;stroke-miterlimit:10;}
	.st4{display:inline;fill:#FFDB45;}
	.st5{display:inline;fill:#76FF00;}
	.st6{display:inline;fill:#0056FF;}
	.st7{display:inline;fill:#B90077;}
	.st8{display:inline;fill:none;stroke:#000000;stroke-width:5.1901;stroke-miterlimit:10;}
	.st9{display:inline;fill:none;stroke:#000000;stroke-width:7.8309;stroke-miterlimit:10;}
	.st10{display:inline;fill:none;stroke:#000000;stroke-width:7.8113;stroke-miterlimit:10;}
	.st11{display:inline;fill:#FF502E;}
	.st12{display:inline;fill:#FF322E;stroke:#FFFFFF;stroke-miterlimit:10;}
	.st13{display:inline;}
	.st14{fill:#5C2500;stroke:#000000;stroke-width:0.287;stroke-miterlimit:10;}
	.st15{fill:#002D73;}
	.st16{fill:#001A5C;stroke:#000000;stroke-width:0.287;stroke-miterlimit:10;}
	.st17{fill:#170B00;}
	.st18{fill:#E9A07B;}
	.st19{stroke:#000000;stroke-width:0.4082;stroke-miterlimit:10;}
	.st20{fill:#5C4A00;}
	.st21{fill:#FFFFFF;}
	.st22{opacity:0.3;}
	.st23{opacity:0.2;}
	.st24{fill:#FF8BAA;}
	.st25{fill:#FFFFFF;stroke:#000000;stroke-width:0.287;stroke-miterlimit:10;}
	.st26{fill:#D0A200;}
	.st27{fill:#FF5445;}
	.st28{display:inline;fill:#2EFCFF;}
	.st29{display:inline;fill:#4CAA39;stroke:#000000;stroke-miterlimit:10;}
	.st30{display:inline;fill:#A9A4BC;}
	.st31{display:inline;fill:#D02100;}
	.st32{display:inline;fill:#FAECFC;stroke:#000000;stroke-miterlimit:10;}
	.st33{display:inline;fill:#E0D183;stroke:#000000;stroke-miterlimit:10;}
	.st34{display:inline;fill:#297300;}
	.st35{display:inline;fill:#FFFFFF;}
	.st36{display:inline;fill:#E0D183;}
	.st37{display:inline;fill:none;stroke:#000000;stroke-width:3;stroke-miterlimit:10;}
	.st38{display:inline;fill:#F5FCFA;}
	.st39{display:inline;fill:#D0FFF5;}
	.st40{display:inline;fill:none;stroke:#D0A200;stroke-width:3;stroke-miterlimit:10;}
	.st41{display:inline;fill:none;stroke:#D0A200;stroke-width:3.8419;stroke-miterlimit:10;}
	.st42{display:inline;fill:#A8A6A9;}
	.st43{display:inline;fill:none;stroke:#000000;stroke-width:7.1024;stroke-miterlimit:10;}
	.st44{display:inline;fill:none;stroke:#000000;stroke-width:7.0847;stroke-miterlimit:10;}
	.st45{display:inline;fill:#735400;stroke:#000000;stroke-miterlimit:10;}
	.st46{display:inline;fill:#31A200;}
	.st47{display:inline;fill:#9EFF73;}
	.st48{fill:#FFFFFF;stroke:#000000;stroke-width:0.2574;stroke-miterlimit:10;}
	.st49{fill:#CF5B4D;}
</style>
<g id="Layer_1" class="st0">
	<rect x="-802" y="-197" class="st1" width="1276" height="875"/>
	<g id="VHNrjG.tif">
		
			<image style="display:inline;overflow:visible;" width="358" height="429" id="Layer_0_1_" xlink:href="6D4538AF2738F3F4.png"  transform="matrix(3.5642 0 0 2.3986 -802 -330)">
		</image>
	</g>
	<rect x="-18" y="68" class="st2" width="38" height="49"/>
	<rect x="-18" y="256" class="st3" width="492" height="155"/>
	<rect x="72" y="317" transform="matrix(-1 -4.490065e-11 4.490065e-11 -1 163 657)" class="st4" width="19" height="23"/>
	<rect x="50" y="317" transform="matrix(-1 -4.490065e-11 4.490065e-11 -1 119 657)" class="st5" width="19" height="23"/>
	<rect x="28" y="317" transform="matrix(-1 -4.490065e-11 4.490065e-11 -1 75 657)" class="st6" width="19" height="23"/>
	<rect x="7" y="317" transform="matrix(-1 -4.490065e-11 4.490065e-11 -1 33 657)" class="st7" width="19" height="23"/>
	<rect x="158" y="317" transform="matrix(-1 -4.490065e-11 4.490065e-11 -1 335 657)" class="st4" width="19" height="23"/>
	<rect x="136" y="317" transform="matrix(-1 -4.490065e-11 4.490065e-11 -1 291 657)" class="st5" width="19" height="23"/>
	<rect x="114" y="317" transform="matrix(-1 -4.490065e-11 4.490065e-11 -1 247 657)" class="st6" width="19" height="23"/>
	<rect x="93" y="317" transform="matrix(-1 -4.490065e-11 4.490065e-11 -1 205 657)" class="st7" width="19" height="23"/>
	<rect x="9" y="347" class="st4" width="19" height="23"/>
	<rect x="31" y="347" class="st5" width="19" height="23"/>
	<rect x="53" y="347" class="st6" width="19" height="23"/>
	<rect x="74" y="347" class="st7" width="19" height="23"/>
	<rect x="93" y="347" class="st4" width="19" height="23"/>
	<rect x="115" y="347" class="st5" width="19" height="23"/>
	<rect x="137" y="347" class="st6" width="19" height="23"/>
	<rect x="158" y="347" class="st7" width="19" height="23"/>
	<rect x="272" y="317" transform="matrix(-1 -4.490065e-11 4.490065e-11 -1 563 657)" class="st4" width="19" height="23"/>
	<rect x="250" y="317" transform="matrix(-1 -4.490065e-11 4.490065e-11 -1 519 657)" class="st5" width="19" height="23"/>
	<rect x="228" y="317" transform="matrix(-1 -4.490065e-11 4.490065e-11 -1 475 657)" class="st6" width="19" height="23"/>
	<rect x="207" y="317" transform="matrix(-1 -4.490065e-11 4.490065e-11 -1 433 657)" class="st7" width="19" height="23"/>
	<rect x="358" y="317" transform="matrix(-1 -4.490065e-11 4.490065e-11 -1 735 657)" class="st4" width="19" height="23"/>
	<rect x="336" y="317" transform="matrix(-1 -4.490065e-11 4.490065e-11 -1 691 657)" class="st5" width="19" height="23"/>
	<rect x="314" y="317" transform="matrix(-1 -4.490065e-11 4.490065e-11 -1 647 657)" class="st6" width="19" height="23"/>
	<rect x="293" y="317" transform="matrix(-1 -4.490065e-11 4.490065e-11 -1 605 657)" class="st7" width="19" height="23"/>
	<rect x="209" y="347" class="st4" width="19" height="23"/>
	<rect x="231" y="347" class="st5" width="19" height="23"/>
	<rect x="253" y="347" class="st6" width="19" height="23"/>
	<rect x="274" y="347" class="st7" width="19" height="23"/>
	<rect x="293" y="347" class="st4" width="19" height="23"/>
	<rect x="315" y="347" class="st5" width="19" height="23"/>
	<rect x="337" y="347" class="st6" width="19" height="23"/>
	<rect x="358" y="347" class="st7" width="19" height="23"/>
	<rect x="388" y="318" class="st4" width="19" height="23"/>
	<rect x="410" y="318" class="st5" width="19" height="23"/>
	<rect x="432" y="318" class="st6" width="19" height="23"/>
	<rect x="453" y="318" class="st7" width="19" height="23"/>
	<rect x="455" y="348" transform="matrix(-1 -4.490065e-11 4.490065e-11 -1 929 719)" class="st4" width="19" height="23"/>
	<rect x="433" y="348" transform="matrix(-1 -4.490065e-11 4.490065e-11 -1 885 719)" class="st5" width="19" height="23"/>
	<rect x="411" y="348" transform="matrix(-1 -4.490065e-11 4.490065e-11 -1 841 719)" class="st6" width="19" height="23"/>
	<rect x="390" y="348" transform="matrix(-1 -4.490065e-11 4.490065e-11 -1 799 719)" class="st7" width="19" height="23"/>
	<rect x="384.5" y="257.5" class="st8" width="89" height="153"/>
	<rect x="-18.5" y="255.5" class="st9" width="200" height="155"/>
	<rect x="186" y="256" class="st10" width="199" height="155"/>
	<rect x="-801.5" y="252" transform="matrix(-1 -4.489798e-11 4.489798e-11 -1 -1111 659)" class="st3" width="492" height="155"/>
	<rect x="-418.5" y="313" class="st4" width="19" height="23"/>
	<rect x="-396.5" y="313" class="st5" width="19" height="23"/>
	<rect x="-374.5" y="313" class="st6" width="19" height="23"/>
	<rect x="-353.5" y="313" class="st7" width="19" height="23"/>
	<rect x="-504.5" y="313" class="st4" width="19" height="23"/>
	<rect x="-482.5" y="313" class="st5" width="19" height="23"/>
	<rect x="-460.5" y="313" class="st6" width="19" height="23"/>
	<rect x="-439.5" y="313" class="st7" width="19" height="23"/>
	<rect x="-355.5" y="343" transform="matrix(-1 -4.490065e-11 4.490065e-11 -1 -692 709)" class="st4" width="19" height="23"/>
	<rect x="-377.5" y="343" transform="matrix(-1 -4.490065e-11 4.490065e-11 -1 -736 709)" class="st5" width="19" height="23"/>
	<rect x="-399.5" y="343" transform="matrix(-1 -4.490065e-11 4.490065e-11 -1 -780 709)" class="st6" width="19" height="23"/>
	<rect x="-420.5" y="343" transform="matrix(-1 -4.490065e-11 4.490065e-11 -1 -822 709)" class="st7" width="19" height="23"/>
	<rect x="-439.5" y="343" transform="matrix(-1 -4.490065e-11 4.490065e-11 -1 -860 709)" class="st4" width="19" height="23"/>
	<rect x="-461.5" y="343" transform="matrix(-1 -4.490065e-11 4.490065e-11 -1 -904 709)" class="st5" width="19" height="23"/>
	<rect x="-483.5" y="343" transform="matrix(-1 -4.490065e-11 4.490065e-11 -1 -948 709)" class="st6" width="19" height="23"/>
	<rect x="-504.5" y="343" transform="matrix(-1 -4.490065e-11 4.490065e-11 -1 -990 709)" class="st7" width="19" height="23"/>
	<rect x="-618.5" y="313" class="st4" width="19" height="23"/>
	<rect x="-596.5" y="313" class="st5" width="19" height="23"/>
	<rect x="-574.5" y="313" class="st6" width="19" height="23"/>
	<rect x="-553.5" y="313" class="st7" width="19" height="23"/>
	<rect x="-704.5" y="313" class="st4" width="19" height="23"/>
	<rect x="-682.5" y="313" class="st5" width="19" height="23"/>
	<rect x="-660.5" y="313" class="st6" width="19" height="23"/>
	<rect x="-639.5" y="313" class="st7" width="19" height="23"/>
	<rect x="-555.5" y="343" transform="matrix(-1 -4.490065e-11 4.490065e-11 -1 -1092 709)" class="st4" width="19" height="23"/>
	<rect x="-577.5" y="343" transform="matrix(-1 -4.490065e-11 4.490065e-11 -1 -1136 709)" class="st5" width="19" height="23"/>
	<rect x="-599.5" y="343" transform="matrix(-1 -4.490065e-11 4.490065e-11 -1 -1180 709)" class="st6" width="19" height="23"/>
	<rect x="-620.5" y="343" transform="matrix(-1 -4.480473e-11 4.480473e-11 -1 -1222 709)" class="st7" width="19" height="23"/>
	<rect x="-639.5" y="343" transform="matrix(-1 -4.490065e-11 4.490065e-11 -1 -1260 709)" class="st4" width="19" height="23"/>
	<rect x="-661.5" y="343" transform="matrix(-1 -4.490065e-11 4.490065e-11 -1 -1304 709)" class="st5" width="19" height="23"/>
	<rect x="-683.5" y="343" transform="matrix(-1 -4.490065e-11 4.490065e-11 -1 -1348 709)" class="st6" width="19" height="23"/>
	<rect x="-704.5" y="343" transform="matrix(-1 -4.490065e-11 4.490065e-11 -1 -1390 709)" class="st7" width="19" height="23"/>
	<rect x="-734.5" y="314" transform="matrix(-1 -4.490065e-11 4.490065e-11 -1 -1450 651)" class="st4" width="19" height="23"/>
	<rect x="-756.5" y="314" transform="matrix(-1 -4.490065e-11 4.490065e-11 -1 -1494 651)" class="st5" width="19" height="23"/>
	<rect x="-778.5" y="314" transform="matrix(-1 -4.490065e-11 4.490065e-11 -1 -1538 651)" class="st6" width="19" height="23"/>
	<rect x="-799.5" y="314" transform="matrix(-1 -4.490065e-11 4.490065e-11 -1 -1580 651)" class="st7" width="19" height="23"/>
	<rect x="-801.5" y="344" class="st4" width="19" height="23"/>
	<rect x="-779.5" y="344" class="st5" width="19" height="23"/>
	<rect x="-757.5" y="344" class="st6" width="19" height="23"/>
	<rect x="-736.5" y="344" class="st7" width="19" height="23"/>
	<rect x="-801" y="253.5" transform="matrix(-1 -4.490243e-11 4.490243e-11 -1 -1513 660)" class="st8" width="89" height="153"/>
	<rect x="-509" y="251.5" transform="matrix(-1 -4.489266e-11 4.489266e-11 -1 -818 658)" class="st9" width="200" height="155"/>
	<rect x="-712.5" y="252" transform="matrix(-1 -4.489887e-11 4.489887e-11 -1 -1226 659)" class="st10" width="199" height="155"/>
	<rect x="-250" y="442" class="st11" width="165" height="82"/>
	<rect x="-223" y="459" class="st12" width="118" height="51"/>
	<g class="st13">
		<path class="st14" d="M-203.9,58.1c0,0-10.6,3-7.4,6.9c3.2,3.9,19.7,2.3,19.7,2.3l9.7-4.4l-2.9-10.1"/>
		<path class="st14" d="M-158.7,58.5c0,0,10.6,3,7.4,6.9c-3.2,3.9-19.7,2.3-19.7,2.3l-9.7-4.4l2.9-10.1"/>
		<path d="M-199.6-25.8l1.8,43.3h35.9v-45.1C-161.9-27.6-202.8-29.7-199.6-25.8z"/>
		<path class="st15" d="M-194.2-27.7l10.4,24.6l15.1-24.6C-168.6-27.7-189-37.7-194.2-27.7z"/>
		<path class="st16" d="M-207.4,18.8h51.7v33c0,0-1.3,8.7-12.8,8.7c-11.5,0-13.4-9-13.4-9l-1-17.1l-1.8,18.4c0,0,0.8,8.7-12.4,7.8
			c-13.2-1-10.2-14.7-10.2-14.7V18.8z"/>
		<rect x="-201.9" y="13.6" class="st17" width="41.7" height="6.1"/>
		<g id="head">
			<path class="st18" d="M-164.2-56.1c0,0,0.3,8.7-2.2,10.2C-168.9-44.4-164.2-56.1-164.2-56.1z"/>
			<path class="st19" d="M-184.9-21.5c0,0-17.2,1.2-16.2-32.1c-1.8-1.4-2.6-4.3-2.8-9.5s2.5-20.4,11.2-23c1.7-2.5,5.8-3.2,5.8-3.2
				h6.9c0,0,3.8,3.1,3.8,6.6c0,3.5,2.8,0.3,2.8,0.3s4.3-1.1,5.2-0.2c0.9,0.9,2.3,2.9,2.2,5.2s2.3,0,2.3,0s-0.2,2.8-1.5,3.8
				c-1.4,1.1,1.5,3.7,1.5,3.7v2.6l1.8,1.1l-1.8,3.4l-0.5,6.7l-2,4.6c0,0-0.2,16.2-2.7,21.4C-171.4-24.8-180.2-22-184.9-21.5z"/>
			<path class="st18" d="M-199.2-61c0,0-1.2-15.6,14.1-15.2c15.3,0.5,14.9,6.4,14.7,11.8c3.1,2.6,1.4,6.4,1.4,6.4l0.4,6.7
				c0,0-3.3,9.8-6.6,10.6c-1.2-3.5-6.9-5.4-6.9-5.4s-2.2-0.2-3.2,1.1c-0.6-1.8-3.2-1.8-3.2-1.8s-5.7,4-6.4,6.1
				c-0.8,2.2-4.5-6.9-4.3-7.7C-199-49-200.2-59.2-199.2-61z"/>
			<path d="M-197.8-59c0,0,2.9-6.6,9.3-3.8c0.7,0.8-0.7,1-0.7,1S-193.9-64-197.8-59z"/>
			<path d="M-182.3-61.6c0,0,1.5-1.9,2.7-1.9c1,0,4,0,4,0s3.8,1.4,3.7,4.5c-0.7-1.2-3.6-3.2-3.6-3.2s-4-0.9-5.9,1.3
				C-182.1-60.1-182.3-61.6-182.3-61.6z"/>
			<path d="M-180.8-58.6c0,0,3.8-2,7.2,0c-1.1,1.3-1.4,2.5-3.6,2.6S-180.8-58.6-180.8-58.6z"/>
			<path d="M-188.8-59.1c0,0-4-1.5-7.1,0.9c1.2,1.2,1.7,2.3,3.9,2.2C-189.8-56.2-188.8-59.1-188.8-59.1z"/>
			<circle class="st20" cx="-192.4" cy="-57.8" r="1.6"/>
			<circle class="st20" cx="-177" cy="-57.9" r="1.5"/>
			<circle class="st21" cx="-177" cy="-57.9" r="0.8"/>
			<circle class="st21" cx="-192.4" cy="-57.8" r="0.8"/>
			<circle cx="-177" cy="-57.9" r="0.3"/>
			<circle cx="-192.4" cy="-57.8" r="0.4"/>
			<g class="st22">
				
					<image style="overflow:visible;enable-background:new    ;" width="113" height="119" xlink:href="59844B2188B28F2B.png"  transform="matrix(0.255 0 0 0.255 -206.6872 -72.0111)">
				</image>
			</g>
			<g class="st22">
				
					<image style="overflow:visible;enable-background:new    ;" width="114" height="119" xlink:href="59844B2188B28F29.png"  transform="matrix(0.255 0 0 0.255 -192.3425 -72.5239)">
				</image>
			</g>
			<circle cx="-187.4" cy="-48.4" r="0.6"/>
			<ellipse transform="matrix(0.9557 -0.2942 0.2942 0.9557 6.1491 -56.1036)" cx="-183.4" cy="-48.5" rx="0.9" ry="0.7"/>
			<g class="st23">
				
					<image style="overflow:visible;enable-background:new    ;" width="160" height="175" xlink:href="59844B2188B28F2F.png"  transform="matrix(0.2554 0 0 0.2554 -203.8696 -84.3041)">
				</image>
			</g>
			<path d="M-179.1-59l0.2-0.6c0,0,0,0.7,0.2,0.6c0.2-0.1,0.2-0.7,0.2-0.7l0.2,0.6l0.2-0.6v0.4l0.4-0.5l-0.2,0.4l0.5-0.4l-0.2,0.4
				l0.5-0.4l-0.1,0.3l0.5-0.3l-0.1,0.2l0.3-0.1l0.3-0.1l-0.2,0.3c0,0,0.7-0.4,0.6-0.3c-0.1,0.1-0.3,0.3-0.3,0.3l0.4-0.2l-0.2,0.2
				l0.6-0.1l-0.2,0.2c0,0,0.7-0.3,0.6-0.2c-0.1,0.1-0.3,0.4-0.3,0.4l0.7-0.3l-0.3,0.3l0.6-0.2l-0.4,0.4l0.7-0.3l-0.6,0.4
				C-174.4-58.9-176.2-59.7-179.1-59z"/>
			<path d="M-190-58.8l-0.2-0.7c0,0,0.1,0.8-0.2,0.7c-0.3-0.1-0.3-0.8-0.3-0.8l-0.2,0.7l-0.3-0.6l0,0.5l-0.5-0.6l0.2,0.4l-0.5-0.4
				l0.2,0.4l-0.5-0.4l0.1,0.3l-0.6-0.3l0.1,0.2l-0.4-0.1l-0.3-0.1l0.3,0.3c0,0-0.8-0.4-0.7-0.3c0.1,0.1,0.3,0.3,0.3,0.3l-0.5-0.2
				l0.2,0.2l-0.7-0.1l0.3,0.3c0,0-0.8-0.4-0.7-0.2s0.4,0.4,0.4,0.4l-0.8-0.3l0.4,0.4l-0.7-0.2l0.5,0.4l-0.8-0.3l0.6,0.4
				C-195.3-58.3-193.3-59.4-190-58.8z"/>
			<g class="st22">
				
					<image style="overflow:visible;enable-background:new    ;" width="115" height="124" xlink:href="59844B2188B28F28.png"  transform="matrix(0.255 0 0 0.255 -190.0372 -66.6303)">
				</image>
			</g>
			<g class="st23">
				
					<image style="overflow:visible;enable-background:new    ;" width="106" height="112" xlink:href="59844B2188B28F26.png"  transform="matrix(0.255 0 0 0.255 -206.4311 -65.0947)">
				</image>
			</g>
			<path class="st24" d="M-188.8-40.3c0,0,1.9,1.7,3.5,1.6c1.6-0.1,4.5-1.6,4.5-1.6S-186.3-42.4-188.8-40.3z"/>
			<g class="st22">
				
					<image style="overflow:visible;enable-background:new    ;" width="108" height="83" xlink:href="59844B2188B28F27.png"  transform="matrix(0.255 0 0 0.255 -206.4333 -66.6516)">
				</image>
			</g>
			<g class="st22">
				
					<image style="overflow:visible;enable-background:new    ;" width="107" height="83" xlink:href="59844B2188B28F37.png"  transform="matrix(0.255 0 0 0.255 -191.0638 -67.4195)">
				</image>
			</g>
		</g>
		<path class="st18" d="M-236.4-10.5c0,0-11.3-0.5-8.7,4.5s6.9,3.5,6.9,3.5s-5.8,5.3-3.7,6.6c2.1,1.3,5.5,12.8,9.3,12.6
			c3.8-0.2,11.5,1.8,15.2,0c3.7-1.8,14.9-28.2-3.7-27.6C-239.6-10.4-236.4-10.5-236.4-10.5z"/>
		<path class="st18" d="M-132.8,6.2c0,0-3.5,18.8-15.3,17.8c-11.9-1,10.1-20.7,10.1-20.7L-132.8,6.2z"/>
		<path class="st25" d="M-197.1-30.1c0,0-20.9,7.1-23.8,19.1s24.2,6.5-2.3,27.8c7.1-1.9,9.7-1.9,9.7-1.9V42c0,0,16,11.3,20.9,1.6
			C-193,32.4-187.8-24.3-197.1-30.1z"/>
		<path class="st25" d="M-168.9-30.1c0,0,22,6.8,24.5,12.7c2.6,5.8,11.6,23.6,11.6,23.6l-14.2,6.5l-1.3-21.4l0.3,49.5
			c0,0-10.5,7.4-22,4.2C-168.5,36.9-168.9-30.1-168.9-30.1z"/>
		<rect x="-186.7" y="13.6" class="st26" width="9.3" height="6.1"/>
		<circle class="st27" cx="-229.7" cy="-5.3" r="8.4"/>
		<path class="st21" d="M-238.1-4.6c0,0,0.4,7.5,8.4,7.7c5.5-0.1,8.5-4.6,8.4-7.4C-224.9-4.4-238.1-4.6-238.1-4.6z"/>
		<path d="M-221.6-4.4h-16.4c-0.1,0-0.2-0.1-0.2-0.2v-1.2c0-0.1,0.1-0.2,0.2-0.2h16.4c0.1,0,0.2,0.1,0.2,0.2v1.2
			C-221.3-4.5-221.4-4.4-221.6-4.4z"/>
		<circle cx="-229.7" cy="-5.3" r="2.8"/>
		<circle class="st21" cx="-229.7" cy="-5.3" r="2"/>
	</g>
	<path class="st28" d="M-690,40c0,0,32.9,40.2,72,38c53-3,78-27,78-42s0-28,0-28s-44,40-69,32s-70-2.6-76.5-14.8S-690,40-690,40z"/>
	<rect x="238" y="68" class="st2" width="38" height="49"/>
	<rect x="-17.5" y="-8.5" class="st29" width="292" height="100"/>
	<ellipse class="st30" cx="-613" cy="-1" rx="82" ry="56"/>
	<ellipse class="st31" cx="-612.5" cy="-13.5" rx="60" ry="28"/>
	<path class="st30" d="M-690,40c0,0,30,41,72,38s71-16,78-42s23,10,23,10v18h-14v28c0,0-35,34-82,32S-707,94-690,40z"/>
	<path class="st30" d="M-685.5,86.8c0,0-21.5,8.2-22.5,30.2s34,7,34,7l11-25L-685.5,86.8z"/>
	<path class="st30" d="M-540,87c0,0,23,12,23,30s-29,12-29,12s5-30-9-30"/>
	<path class="st30" d="M-695,32c0,0-20,9-17,29s27-1,27-1L-695,32z"/>
	<rect x="-802" y="-230" class="st32" width="90" height="90"/>
	<rect x="-802.5" y="-273.5" class="st32" width="90" height="43"/>
	<rect x="-708" y="-244" class="st32" width="88" height="35"/>
	<rect x="-605.5" y="-180.5" class="st33" width="23" height="41"/>
	<rect x="-485.5" y="-184.5" class="st33" width="61" height="45"/>
	<rect x="-708" y="-209" class="st32" width="88" height="69"/>
	<rect x="-605" y="-235" class="st33" width="184" height="61"/>
	<rect x="-698.5" y="-197.5" class="st34" width="34" height="23"/>
	<rect x="-605" y="-252" class="st35" width="82" height="61"/>
	<rect x="-598" y="-235" class="st13" width="67" height="31"/>
	<rect x="-587" y="-191" class="st35" width="43" height="6"/>
	<rect x="-406.5" y="-177.5" class="st33" width="23" height="41"/>
	<rect x="-288.5" y="-181.5" class="st33" width="61" height="45"/>
	<rect x="-408" y="-232" class="st33" width="184" height="61"/>
	<rect x="-208" y="-273" class="st36" width="75" height="69"/>
	<rect x="-111" y="-273" class="st33" width="82" height="69"/>
	<polyline class="st37" points="-208.5,-273.5 -168.5,-296.5 -133.5,-273.5 	"/>
	<polyline class="st37" points="-107.5,-273.5 -67.5,-296.5 -32.5,-273.5 	"/>
	<rect x="-195.5" y="-262.5" class="st35" width="53" height="43"/>
	<rect x="-96" y="-260" class="st35" width="53" height="43"/>
	<text transform="matrix(1 0 0 1 -178.3682 -238.688)" class="st13" style="font-family:'MyriadPro-Regular'; font-size:12px;">A+</text>
	<rect x="80" y="-275" class="st38" width="392" height="132"/>
	<rect x="-17" y="-285" class="st39" width="91" height="63"/>
	<rect x="-17" y="-285" class="st40" width="91" height="25"/>
	<rect x="-16.5" y="-260.5" class="st41" width="91" height="41"/>
	
		<rect x="167.5" y="-222.5" transform="matrix(-1 -3.907242e-11 3.907242e-11 -1 353.5477 -425.5338)" class="st4" width="18.5" height="19.5"/>
	
		<rect x="146.1" y="-222.5" transform="matrix(-1 -3.902357e-11 3.902357e-11 -1 310.7472 -425.5338)" class="st5" width="18.5" height="19.5"/>
	
		<rect x="124.7" y="-222.5" transform="matrix(-1 -3.902357e-11 3.902357e-11 -1 267.9467 -425.5338)" class="st6" width="18.5" height="19.5"/>
	
		<rect x="104.3" y="-222.5" transform="matrix(-1 -3.902357e-11 3.902357e-11 -1 227.0917 -425.5338)" class="st7" width="18.5" height="19.5"/>
	
		<rect x="251.2" y="-222.5" transform="matrix(-1 -3.907242e-11 3.907242e-11 -1 520.8588 -425.5338)" class="st4" width="18.5" height="19.5"/>
	
		<rect x="229.8" y="-222.5" transform="matrix(-1 -3.902357e-11 3.902357e-11 -1 478.0582 -425.5338)" class="st5" width="18.5" height="19.5"/>
	
		<rect x="208.4" y="-222.5" transform="matrix(-1 -3.902357e-11 3.902357e-11 -1 435.2578 -425.5338)" class="st6" width="18.5" height="19.5"/>
	
		<rect x="188" y="-222.5" transform="matrix(-1 -3.902357e-11 3.902357e-11 -1 394.4027 -425.5338)" class="st7" width="18.5" height="19.5"/>
	<rect x="106.3" y="-197.1" class="st4" width="18.5" height="19.5"/>
	<rect x="127.7" y="-197.1" class="st5" width="18.5" height="19.5"/>
	<rect x="149.1" y="-197.1" class="st6" width="18.5" height="19.5"/>
	<rect x="169.5" y="-197.1" class="st7" width="18.5" height="19.5"/>
	<rect x="188" y="-197.1" class="st4" width="18.5" height="19.5"/>
	<rect x="209.4" y="-197.1" class="st5" width="18.5" height="19.5"/>
	<rect x="230.8" y="-197.1" class="st6" width="18.5" height="19.5"/>
	<rect x="251.2" y="-197.1" class="st7" width="18.5" height="19.5"/>
	
		<rect x="362.1" y="-222.5" transform="matrix(-1 -3.907242e-11 3.907242e-11 -1 742.6431 -425.5338)" class="st4" width="18.5" height="19.5"/>
	
		<rect x="340.7" y="-222.5" transform="matrix(-1 -3.902357e-11 3.902357e-11 -1 699.8427 -425.5338)" class="st5" width="18.5" height="19.5"/>
	
		<rect x="319.3" y="-222.5" transform="matrix(-1 -3.902357e-11 3.902357e-11 -1 657.0421 -425.5338)" class="st6" width="18.5" height="19.5"/>
	
		<rect x="298.9" y="-222.5" transform="matrix(-1 -3.902357e-11 3.902357e-11 -1 616.1871 -425.5338)" class="st7" width="18.5" height="19.5"/>
	
		<rect x="445.7" y="-222.5" transform="matrix(-1 -3.907242e-11 3.907242e-11 -1 909.9542 -425.5338)" class="st4" width="18.5" height="19.5"/>
	
		<rect x="424.3" y="-222.5" transform="matrix(-1 -3.902357e-11 3.902357e-11 -1 867.1536 -425.5338)" class="st5" width="18.5" height="19.5"/>
	
		<rect x="402.9" y="-222.5" transform="matrix(-1 -3.902357e-11 3.902357e-11 -1 824.3531 -425.5338)" class="st6" width="18.5" height="19.5"/>
	
		<rect x="382.5" y="-222.5" transform="matrix(-1 -3.902357e-11 3.902357e-11 -1 783.4982 -425.5338)" class="st7" width="18.5" height="19.5"/>
	<rect x="300.8" y="-197.1" class="st4" width="18.5" height="19.5"/>
	<rect x="322.2" y="-197.1" class="st5" width="18.5" height="19.5"/>
	<rect x="343.6" y="-197.1" class="st6" width="18.5" height="19.5"/>
	<rect x="364" y="-197.1" class="st7" width="18.5" height="19.5"/>
	<rect x="382.5" y="-197.1" class="st4" width="18.5" height="19.5"/>
	<path class="st42" d="M407.5,184.5c0,0-13,4-13,35s35,22,35,22s22-7,19-14s8-29,2-34S414.5,177.5,407.5,184.5z"/>
	<rect x="403.9" y="-197.1" class="st5" width="18.5" height="19.5"/>
	<rect x="425.3" y="-197.1" class="st6" width="18.5" height="19.5"/>
	<rect x="445.7" y="-197.1" class="st7" width="18.5" height="19.5"/>
	<rect x="79.5" y="-274.5" class="st43" width="194.5" height="131.1"/>
	<rect x="278.4" y="-274.1" class="st44" width="193.6" height="131.1"/>
	<ellipse class="st45" cx="422" cy="207" rx="18" ry="13"/>
	<polygon class="st46" points="385,175 374,189 396,189 399,207 417.5,195.2 422,207 432,204 443,195 471,191 459,175 471,165 
		459,156 459,140 440,140 423,123 407,137 385,137 395,155 370,161 	"/>
	<polygon class="st47" points="422.5,180.2 406.4,190.5 404.5,179 394.6,179 398.5,174 390.4,166.4 410.1,161.7 402,147 410.8,147 
		422.5,136.7 435.9,150 449,150 449,161 454.9,165.4 445.3,173.4 452.9,183.5 438.8,185.5 427.9,194.4 	"/>
	<path class="st42" d="M-773.5,185.5c0,0-13,4-13,35s35,22,35,22s22-7,19-14s8-29,2-34S-766.5,178.5-773.5,185.5z"/>
	<ellipse class="st45" cx="-759" cy="208" rx="18" ry="13"/>
	<polygon class="st46" points="-796,176 -807,190 -785,190 -782,208 -763.5,196.2 -759,208 -749,205 -738,196 -710,192 -722,176 
		-710,166 -722,157 -722,141 -741,141 -758,124 -774,138 -796,138 -786,156 -811,162 	"/>
	<polygon class="st47" points="-758.5,181.2 -774.6,191.5 -776.5,180 -786.4,180 -782.5,175 -790.6,167.4 -770.9,162.7 -779,148 
		-770.2,148 -758.5,137.7 -745.1,151 -732,151 -732,162 -726.1,166.4 -735.7,174.4 -728.1,184.5 -742.2,186.5 -753.1,195.4 	"/>
</g>
<g id="Layer_2" class="st0">
	<g id="blastoise" class="st13">
		<circle class="st48" cx="222.7" cy="36.4" r="34.8"/>
		<path class="st49" d="M187.9,38.5c0,0-1.7-38.1,34.8-38.1c39,0,34.8,38.1,34.8,38.1H187.9z"/>
		<circle cx="222.7" cy="36.4" r="11.7"/>
		<circle class="st21" cx="222.7" cy="36.4" r="8.4"/>
	</g>
</g>
<g id="Layer_3" class="st0">
	<g id="charizard" class="st13">
		<circle class="st48" cx="130.3" cy="36.4" r="34.8"/>
		<path class="st49" d="M95.5,38.5c0,0-1.7-38.1,34.8-38.1c39,0,34.8,38.1,34.8,38.1H95.5z"/>
		<circle cx="130.3" cy="36.4" r="11.7"/>
		<circle class="st21" cx="130.3" cy="36.4" r="8.4"/>
	</g>
</g>
<g id="Layer_4">
	<g id="venasaur">
		<circle class="st48" cx="34.8" cy="35.9" r="34.8"/>
		<path class="st49" d="M0,38C0,38-1.7-0.2,34.8-0.2c39,0,34.8,38.1,34.8,38.1H0z"/>
		<circle cx="34.8" cy="35.9" r="11.7"/>
		<circle class="st21" cx="34.8" cy="35.9" r="8.4"/>
	</g>
</g>
</svg>
