<?xml version="1.0" encoding="utf-8"?>
<!-- Generator: Adobe Illustrator 23.0.2, SVG Export Plug-In . SVG Version: 6.00 Build 0)  -->
<svg version="1.1" xmlns="http://www.w3.org/2000/svg" xmlns:xlink="http://www.w3.org/1999/xlink" x="0px" y="0px"
	 viewBox="0 0 72 71" style="enable-background:new 0 0 72 71;" xml:space="preserve">
<style type="text/css">
	.st0{display:none;}
	.st1{display:inline;fill:#FAECFC;}
	.st2{display:inline;fill:#FFFFFF;stroke:#000000;stroke-miterlimit:10;}
	.st3{display:inline;fill:#FFFFFF;stroke:#000000;stroke-width:3;stroke-miterlimit:10;}
	.st4{display:inline;fill:#FFDB45;}
	.st5{display:inline;fill:#76FF00;}
	.st6{display:inline;fill:#0056FF;}
	.st7{display:inline;fill:#B90077;}
	.st8{display:inline;fill:none;stroke:#000000;stroke-width:5.1901;stroke-miterlimit:10;}
	.st9{display:inline;fill:none;stroke:#000000;stroke-width:7.8309;stroke-miterlimit:10;}
	.st10{display:inline;fill:none;stroke:#000000;stroke-width:7.8113;stroke-miterlimit:10;}
	.st11{display:inline;fill:#FF502E;}
	.st12{display:inline;fill:#FF322E;stroke:#FFFFFF;stroke-miterlimit:10;}
	.st13{display:inline;}
	.st14{fill:#5C2500;stroke:#000000;stroke-width:0.287;stroke-miterlimit:10;}
	.st15{fill:#002D73;}
	.st16{fill:#001A5C;stroke:#000000;stroke-width:0.287;stroke-miterlimit:10;}
	.st17{fill:#170B00;}
	.st18{fill:#E9A07B;}
	.st19{stroke:#000000;stroke-width:0.4082;stroke-miterlimit:10;}
	.st20{fill:#5C4A00;}
	.st21{fill:#FFFFFF;}
	.st22{opacity:0.3;}
	.st23{opacity:0.2;}
	.st24{fill:#FF8BAA;}
	.st25{fill:#FFFFFF;stroke:#000000;stroke-width:0.287;stroke-miterlimit:10;}
	.st26{fill:#D0A200;}
	.st27{fill:#FF5445;}
	.st28{display:inline;fill:#2EFCFF;}
	.st29{display:inline;fill:#4CAA39;stroke:#000000;stroke-miterlimit:10;}
	.st30{display:inline;fill:#A9A4BC;}
	.st31{display:inline;fill:#D02100;}
	.st32{display:inline;fill:#FAECFC;stroke:#000000;stroke-miterlimit:10;}
	.st33{display:inline;fill:#E0D183;stroke:#000000;stroke-miterlimit:10;}
	.st34{display:inline;fill:#297300;}
	.st35{display:inline;fill:#FFFFFF;}
	.st36{display:inline;fill:#E0D183;}
	.st37{display:inline;fill:none;stroke:#000000;stroke-width:3;stroke-miterlimit:10;}
	.st38{display:inline;fill:#F5FCFA;}
	.st39{display:inline;fill:#D0FFF5;}
	.st40{display:inline;fill:none;stroke:#D0A200;stroke-width:3;stroke-miterlimit:10;}
	.st41{display:inline;fill:none;stroke:#D0A200;stroke-width:3.8419;stroke-miterlimit:10;}
	.st42{display:inline;fill:#A8A6A9;}
	.st43{display:inline;fill:none;stroke:#000000;stroke-width:7.1024;stroke-miterlimit:10;}
	.st44{display:inline;fill:none;stroke:#000000;stroke-width:7.0847;stroke-miterlimit:10;}
	.st45{display:inline;fill:#735400;stroke:#000000;stroke-miterlimit:10;}
	.st46{display:inline;fill:#31A200;}
	.st47{display:inline;fill:#9EFF73;}
	.st48{fill:#FFFFFF;stroke:#000000;stroke-width:0.2574;stroke-miterlimit:10;}
	.st49{fill:#CF5B4D;}
</style>
<g id="Layer_1" class="st0">
	<rect x="-994" y="-197" class="st1" width="1276" height="875"/>
	<g id="VHNrjG.tif">
		
			<image style="display:inline;overflow:visible;" width="358" height="429" id="Layer_0_1_" xlink:href="6D560EC89B559C89.png"  transform="matrix(3.5642 0 0 2.3986 -994 -330)">
		</image>
	</g>
	<rect x="-210" y="68" class="st2" width="38" height="49"/>
	<rect x="-210" y="256" class="st3" width="492" height="155"/>
	<rect x="-120" y="317" transform="matrix(-1 -4.490065e-11 4.490065e-11 -1 -221 657)" class="st4" width="19" height="23"/>
	<rect x="-142" y="317" transform="matrix(-1 -4.490065e-11 4.490065e-11 -1 -265 657)" class="st5" width="19" height="23"/>
	<rect x="-164" y="317" transform="matrix(-1 -4.490065e-11 4.490065e-11 -1 -309 657)" class="st6" width="19" height="23"/>
	<rect x="-185" y="317" transform="matrix(-1 -4.490065e-11 4.490065e-11 -1 -351 657)" class="st7" width="19" height="23"/>
	<rect x="-34" y="317" transform="matrix(-1 -4.490065e-11 4.490065e-11 -1 -49 657)" class="st4" width="19" height="23"/>
	<rect x="-56" y="317" transform="matrix(-1 -4.490065e-11 4.490065e-11 -1 -93 657)" class="st5" width="19" height="23"/>
	<rect x="-78" y="317" transform="matrix(-1 -4.490065e-11 4.490065e-11 -1 -137 657)" class="st6" width="19" height="23"/>
	<rect x="-99" y="317" transform="matrix(-1 -4.490065e-11 4.490065e-11 -1 -179 657)" class="st7" width="19" height="23"/>
	<rect x="-183" y="347" class="st4" width="19" height="23"/>
	<rect x="-161" y="347" class="st5" width="19" height="23"/>
	<rect x="-139" y="347" class="st6" width="19" height="23"/>
	<rect x="-118" y="347" class="st7" width="19" height="23"/>
	<rect x="-99" y="347" class="st4" width="19" height="23"/>
	<rect x="-77" y="347" class="st5" width="19" height="23"/>
	<rect x="-55" y="347" class="st6" width="19" height="23"/>
	<rect x="-34" y="347" class="st7" width="19" height="23"/>
	<rect x="80" y="317" transform="matrix(-1 -4.490065e-11 4.490065e-11 -1 179 657)" class="st4" width="19" height="23"/>
	<rect x="58" y="317" transform="matrix(-1 -4.490065e-11 4.490065e-11 -1 135 657)" class="st5" width="19" height="23"/>
	<rect x="36" y="317" transform="matrix(-1 -4.490065e-11 4.490065e-11 -1 91 657)" class="st6" width="19" height="23"/>
	<rect x="15" y="317" transform="matrix(-1 -4.490065e-11 4.490065e-11 -1 49 657)" class="st7" width="19" height="23"/>
	<rect x="166" y="317" transform="matrix(-1 -4.490065e-11 4.490065e-11 -1 351 657)" class="st4" width="19" height="23"/>
	<rect x="144" y="317" transform="matrix(-1 -4.490065e-11 4.490065e-11 -1 307 657)" class="st5" width="19" height="23"/>
	<rect x="122" y="317" transform="matrix(-1 -4.490065e-11 4.490065e-11 -1 263 657)" class="st6" width="19" height="23"/>
	<rect x="101" y="317" transform="matrix(-1 -4.490065e-11 4.490065e-11 -1 221 657)" class="st7" width="19" height="23"/>
	<rect x="17" y="347" class="st4" width="19" height="23"/>
	<rect x="39" y="347" class="st5" width="19" height="23"/>
	<rect x="61" y="347" class="st6" width="19" height="23"/>
	<rect x="82" y="347" class="st7" width="19" height="23"/>
	<rect x="101" y="347" class="st4" width="19" height="23"/>
	<rect x="123" y="347" class="st5" width="19" height="23"/>
	<rect x="145" y="347" class="st6" width="19" height="23"/>
	<rect x="166" y="347" class="st7" width="19" height="23"/>
	<rect x="196" y="318" class="st4" width="19" height="23"/>
	<rect x="218" y="318" class="st5" width="19" height="23"/>
	<rect x="240" y="318" class="st6" width="19" height="23"/>
	<rect x="261" y="318" class="st7" width="19" height="23"/>
	<rect x="263" y="348" transform="matrix(-1 -4.490065e-11 4.490065e-11 -1 545 719)" class="st4" width="19" height="23"/>
	<rect x="241" y="348" transform="matrix(-1 -4.490065e-11 4.490065e-11 -1 501 719)" class="st5" width="19" height="23"/>
	<rect x="219" y="348" transform="matrix(-1 -4.490065e-11 4.490065e-11 -1 457 719)" class="st6" width="19" height="23"/>
	<rect x="198" y="348" transform="matrix(-1 -4.490065e-11 4.490065e-11 -1 415 719)" class="st7" width="19" height="23"/>
	<rect x="192.5" y="257.5" class="st8" width="89" height="153"/>
	<rect x="-210.5" y="255.5" class="st9" width="200" height="155"/>
	<rect x="-6" y="256" class="st10" width="199" height="155"/>
	<rect x="-993.5" y="252" transform="matrix(-1 -4.489798e-11 4.489798e-11 -1 -1495 659)" class="st3" width="492" height="155"/>
	<rect x="-610.5" y="313" class="st4" width="19" height="23"/>
	<rect x="-588.5" y="313" class="st5" width="19" height="23"/>
	<rect x="-566.5" y="313" class="st6" width="19" height="23"/>
	<rect x="-545.5" y="313" class="st7" width="19" height="23"/>
	<rect x="-696.5" y="313" class="st4" width="19" height="23"/>
	<rect x="-674.5" y="313" class="st5" width="19" height="23"/>
	<rect x="-652.5" y="313" class="st6" width="19" height="23"/>
	<rect x="-631.5" y="313" class="st7" width="19" height="23"/>
	<rect x="-547.5" y="343" transform="matrix(-1 -4.490065e-11 4.490065e-11 -1 -1076 709)" class="st4" width="19" height="23"/>
	<rect x="-569.5" y="343" transform="matrix(-1 -4.490065e-11 4.490065e-11 -1 -1120 709)" class="st5" width="19" height="23"/>
	<rect x="-591.5" y="343" transform="matrix(-1 -4.490065e-11 4.490065e-11 -1 -1164 709)" class="st6" width="19" height="23"/>
	<rect x="-612.5" y="343" transform="matrix(-1 -4.490065e-11 4.490065e-11 -1 -1206 709)" class="st7" width="19" height="23"/>
	<rect x="-631.5" y="343" transform="matrix(-1 -4.490065e-11 4.490065e-11 -1 -1244 709)" class="st4" width="19" height="23"/>
	<rect x="-653.5" y="343" transform="matrix(-1 -4.490065e-11 4.490065e-11 -1 -1288 709)" class="st5" width="19" height="23"/>
	<rect x="-675.5" y="343" transform="matrix(-1 -4.490065e-11 4.490065e-11 -1 -1332 709)" class="st6" width="19" height="23"/>
	<rect x="-696.5" y="343" transform="matrix(-1 -4.490065e-11 4.490065e-11 -1 -1374 709)" class="st7" width="19" height="23"/>
	<rect x="-810.5" y="313" class="st4" width="19" height="23"/>
	<rect x="-788.5" y="313" class="st5" width="19" height="23"/>
	<rect x="-766.5" y="313" class="st6" width="19" height="23"/>
	<rect x="-745.5" y="313" class="st7" width="19" height="23"/>
	<rect x="-896.5" y="313" class="st4" width="19" height="23"/>
	<rect x="-874.5" y="313" class="st5" width="19" height="23"/>
	<rect x="-852.5" y="313" class="st6" width="19" height="23"/>
	<rect x="-831.5" y="313" class="st7" width="19" height="23"/>
	<rect x="-747.5" y="343" transform="matrix(-1 -4.490065e-11 4.490065e-11 -1 -1476 709)" class="st4" width="19" height="23"/>
	<rect x="-769.5" y="343" transform="matrix(-1 -4.490065e-11 4.490065e-11 -1 -1520 709)" class="st5" width="19" height="23"/>
	<rect x="-791.5" y="343" transform="matrix(-1 -4.490065e-11 4.490065e-11 -1 -1564 709)" class="st6" width="19" height="23"/>
	<rect x="-812.5" y="343" transform="matrix(-1 -4.480473e-11 4.480473e-11 -1 -1606 709)" class="st7" width="19" height="23"/>
	<rect x="-831.5" y="343" transform="matrix(-1 -4.490065e-11 4.490065e-11 -1 -1644 709)" class="st4" width="19" height="23"/>
	<rect x="-853.5" y="343" transform="matrix(-1 -4.490065e-11 4.490065e-11 -1 -1688 709)" class="st5" width="19" height="23"/>
	<rect x="-875.5" y="343" transform="matrix(-1 -4.490065e-11 4.490065e-11 -1 -1732 709)" class="st6" width="19" height="23"/>
	<rect x="-896.5" y="343" transform="matrix(-1 -4.490065e-11 4.490065e-11 -1 -1774 709)" class="st7" width="19" height="23"/>
	<rect x="-926.5" y="314" transform="matrix(-1 -4.490065e-11 4.490065e-11 -1 -1834 651)" class="st4" width="19" height="23"/>
	<rect x="-948.5" y="314" transform="matrix(-1 -4.490065e-11 4.490065e-11 -1 -1878 651)" class="st5" width="19" height="23"/>
	<rect x="-970.5" y="314" transform="matrix(-1 -4.490065e-11 4.490065e-11 -1 -1922 651)" class="st6" width="19" height="23"/>
	<rect x="-991.5" y="314" transform="matrix(-1 -4.490065e-11 4.490065e-11 -1 -1964 651)" class="st7" width="19" height="23"/>
	<rect x="-993.5" y="344" class="st4" width="19" height="23"/>
	<rect x="-971.5" y="344" class="st5" width="19" height="23"/>
	<rect x="-949.5" y="344" class="st6" width="19" height="23"/>
	<rect x="-928.5" y="344" class="st7" width="19" height="23"/>
	<rect x="-993" y="253.5" transform="matrix(-1 -4.490243e-11 4.490243e-11 -1 -1897 660)" class="st8" width="89" height="153"/>
	<rect x="-701" y="251.5" transform="matrix(-1 -4.489266e-11 4.489266e-11 -1 -1202 658)" class="st9" width="200" height="155"/>
	<rect x="-904.5" y="252" transform="matrix(-1 -4.489887e-11 4.489887e-11 -1 -1610 659)" class="st10" width="199" height="155"/>
	<rect x="-442" y="442" class="st11" width="165" height="82"/>
	<rect x="-415" y="459" class="st12" width="118" height="51"/>
	<g class="st13">
		<path class="st14" d="M-395.9,58.1c0,0-10.6,3-7.4,6.9c3.2,3.9,19.7,2.3,19.7,2.3l9.7-4.4l-2.9-10.1"/>
		<path class="st14" d="M-350.7,58.5c0,0,10.6,3,7.4,6.9c-3.2,3.9-19.7,2.3-19.7,2.3l-9.7-4.4l2.9-10.1"/>
		<path d="M-391.6-25.8l1.8,43.3h35.9v-45.1C-353.9-27.6-394.8-29.7-391.6-25.8z"/>
		<path class="st15" d="M-386.2-27.7l10.4,24.6l15.1-24.6C-360.6-27.7-381-37.7-386.2-27.7z"/>
		<path class="st16" d="M-399.4,18.8h51.7v33c0,0-1.3,8.7-12.8,8.7s-13.4-9-13.4-9l-1-17.1l-1.8,18.4c0,0,0.8,8.7-12.4,7.8
			c-13.2-1-10.2-14.7-10.2-14.7V18.8z"/>
		<rect x="-393.9" y="13.6" class="st17" width="41.7" height="6.1"/>
		<g id="head">
			<path class="st18" d="M-356.2-56.1c0,0,0.3,8.7-2.2,10.2C-360.9-44.4-356.2-56.1-356.2-56.1z"/>
			<path class="st19" d="M-376.9-21.5c0,0-17.2,1.2-16.2-32.1c-1.8-1.4-2.6-4.3-2.8-9.5s2.5-20.4,11.2-23c1.7-2.5,5.8-3.2,5.8-3.2
				h6.9c0,0,3.8,3.1,3.8,6.6c0,3.5,2.8,0.3,2.8,0.3s4.3-1.1,5.2-0.2c0.9,0.9,2.3,2.9,2.2,5.2s2.3,0,2.3,0s-0.2,2.8-1.5,3.8
				c-1.4,1.1,1.5,3.7,1.5,3.7v2.6l1.8,1.1l-1.8,3.4l-0.5,6.7l-2,4.6c0,0-0.2,16.2-2.7,21.4C-363.4-24.8-372.2-22-376.9-21.5z"/>
			<path class="st18" d="M-391.2-61c0,0-1.2-15.6,14.1-15.2c15.3,0.5,14.9,6.4,14.7,11.8c3.1,2.6,1.4,6.4,1.4,6.4l0.4,6.7
				c0,0-3.3,9.8-6.6,10.6c-1.2-3.5-6.9-5.4-6.9-5.4s-2.2-0.2-3.2,1.1c-0.6-1.8-3.2-1.8-3.2-1.8s-5.7,4-6.4,6.1
				c-0.8,2.2-4.5-6.9-4.3-7.7C-391-49-392.2-59.2-391.2-61z"/>
			<path d="M-389.8-59c0,0,2.9-6.6,9.3-3.8c0.7,0.8-0.7,1-0.7,1S-385.9-64-389.8-59z"/>
			<path d="M-374.3-61.6c0,0,1.5-1.9,2.7-1.9c1,0,4,0,4,0s3.8,1.4,3.7,4.5c-0.7-1.2-3.6-3.2-3.6-3.2s-4-0.9-5.9,1.3
				C-374.1-60.1-374.3-61.6-374.3-61.6z"/>
			<path d="M-372.8-58.6c0,0,3.8-2,7.2,0c-1.1,1.3-1.4,2.5-3.6,2.6S-372.8-58.6-372.8-58.6z"/>
			<path d="M-380.8-59.1c0,0-4-1.5-7.1,0.9c1.2,1.2,1.7,2.3,3.9,2.2C-381.8-56.2-380.8-59.1-380.8-59.1z"/>
			<circle class="st20" cx="-384.4" cy="-57.8" r="1.6"/>
			<circle class="st20" cx="-369" cy="-57.9" r="1.5"/>
			<circle class="st21" cx="-369" cy="-57.9" r="0.8"/>
			<circle class="st21" cx="-384.4" cy="-57.8" r="0.8"/>
			<circle cx="-369" cy="-57.9" r="0.3"/>
			<circle cx="-384.4" cy="-57.8" r="0.4"/>
			<g class="st22">
				
					<image style="overflow:visible;enable-background:new    ;" width="113" height="119" xlink:href="59844B2188B28F2B.png"  transform="matrix(0.255 0 0 0.255 -398.6872 -72.0111)">
				</image>
			</g>
			<g class="st22">
				
					<image style="overflow:visible;enable-background:new    ;" width="114" height="119" xlink:href="59844B2188B28F29.png"  transform="matrix(0.255 0 0 0.255 -384.3425 -72.5239)">
				</image>
			</g>
			<circle cx="-379.4" cy="-48.4" r="0.6"/>
			<ellipse transform="matrix(0.9557 -0.2942 0.2942 0.9557 -2.3488 -112.5924)" cx="-375.4" cy="-48.5" rx="0.9" ry="0.7"/>
			<g class="st23">
				
					<image style="overflow:visible;enable-background:new    ;" width="160" height="175" xlink:href="59844B2188B28F2F.png"  transform="matrix(0.2554 0 0 0.2554 -395.8697 -84.3041)">
				</image>
			</g>
			<path d="M-371.1-59l0.2-0.6c0,0,0,0.7,0.2,0.6c0.2-0.1,0.2-0.7,0.2-0.7l0.2,0.6l0.2-0.6v0.4l0.4-0.5l-0.2,0.4l0.5-0.4l-0.2,0.4
				l0.5-0.4l-0.1,0.3l0.5-0.3l-0.1,0.2l0.3-0.1l0.3-0.1l-0.2,0.3c0,0,0.7-0.4,0.6-0.3c-0.1,0.1-0.3,0.3-0.3,0.3l0.4-0.2l-0.2,0.2
				l0.6-0.1l-0.2,0.2c0,0,0.7-0.3,0.6-0.2c-0.1,0.1-0.3,0.4-0.3,0.4l0.7-0.3l-0.3,0.3l0.6-0.2l-0.4,0.4l0.7-0.3l-0.6,0.4
				C-366.4-58.9-368.2-59.7-371.1-59z"/>
			<path d="M-382-58.8l-0.2-0.7c0,0,0.1,0.8-0.2,0.7c-0.3-0.1-0.3-0.8-0.3-0.8l-0.2,0.7l-0.3-0.6l0,0.5l-0.5-0.6l0.2,0.4l-0.5-0.4
				l0.2,0.4l-0.5-0.4l0.1,0.3l-0.6-0.3l0.1,0.2l-0.4-0.1l-0.3-0.1l0.3,0.3c0,0-0.8-0.4-0.7-0.3c0.1,0.1,0.3,0.3,0.3,0.3l-0.5-0.2
				l0.2,0.2l-0.7-0.1l0.3,0.3c0,0-0.8-0.4-0.7-0.2s0.4,0.4,0.4,0.4l-0.8-0.3l0.4,0.4l-0.7-0.2l0.5,0.4l-0.8-0.3l0.6,0.4
				C-387.3-58.3-385.3-59.4-382-58.8z"/>
			<g class="st22">
				
					<image style="overflow:visible;enable-background:new    ;" width="115" height="124" xlink:href="59844B2188B28F28.png"  transform="matrix(0.255 0 0 0.255 -382.0372 -66.6303)">
				</image>
			</g>
			<g class="st23">
				
					<image style="overflow:visible;enable-background:new    ;" width="106" height="112" xlink:href="59844B2188B28F26.png"  transform="matrix(0.255 0 0 0.255 -398.4311 -65.0947)">
				</image>
			</g>
			<path class="st24" d="M-380.8-40.3c0,0,1.9,1.7,3.5,1.6c1.6-0.1,4.5-1.6,4.5-1.6S-378.3-42.4-380.8-40.3z"/>
			<g class="st22">
				
					<image style="overflow:visible;enable-background:new    ;" width="108" height="83" xlink:href="59844B2188B28F27.png"  transform="matrix(0.255 0 0 0.255 -398.4333 -66.6516)">
				</image>
			</g>
			<g class="st22">
				
					<image style="overflow:visible;enable-background:new    ;" width="107" height="83" xlink:href="59844B2188B28F37.png"  transform="matrix(0.255 0 0 0.255 -383.0638 -67.4195)">
				</image>
			</g>
		</g>
		<path class="st18" d="M-428.4-10.5c0,0-11.3-0.5-8.7,4.5s6.9,3.5,6.9,3.5s-5.8,5.3-3.7,6.6c2.1,1.3,5.5,12.8,9.3,12.6
			c3.8-0.2,11.5,1.8,15.2,0s14.9-28.2-3.7-27.6C-431.6-10.4-428.4-10.5-428.4-10.5z"/>
		<path class="st18" d="M-324.8,6.2c0,0-3.5,18.8-15.3,17.8c-11.9-1,10.1-20.7,10.1-20.7L-324.8,6.2z"/>
		<path class="st25" d="M-389.1-30.1c0,0-20.9,7.1-23.8,19.1s24.2,6.5-2.3,27.8c7.1-1.9,9.7-1.9,9.7-1.9V42c0,0,16,11.3,20.9,1.6
			C-385,32.4-379.8-24.3-389.1-30.1z"/>
		<path class="st25" d="M-360.9-30.1c0,0,22,6.8,24.5,12.7s11.6,23.6,11.6,23.6l-14.2,6.5l-1.3-21.4l0.3,49.5c0,0-10.5,7.4-22,4.2
			C-360.5,36.9-360.9-30.1-360.9-30.1z"/>
		<rect x="-378.7" y="13.6" class="st26" width="9.3" height="6.1"/>
		<circle class="st27" cx="-421.7" cy="-5.3" r="8.4"/>
		<path class="st21" d="M-430.1-4.6c0,0,0.4,7.5,8.4,7.7c5.5-0.1,8.5-4.6,8.4-7.4C-416.9-4.4-430.1-4.6-430.1-4.6z"/>
		<path d="M-413.6-4.4h-16.4c-0.1,0-0.2-0.1-0.2-0.2v-1.2c0-0.1,0.1-0.2,0.2-0.2h16.4c0.1,0,0.2,0.1,0.2,0.2v1.2
			C-413.3-4.5-413.4-4.4-413.6-4.4z"/>
		<circle cx="-421.7" cy="-5.3" r="2.8"/>
		<circle class="st21" cx="-421.7" cy="-5.3" r="2"/>
	</g>
	<path class="st28" d="M-882,40c0,0,32.9,40.2,72,38c53-3,78-27,78-42s0-28,0-28s-44,40-69,32s-70-2.6-76.5-14.8S-882,40-882,40z"/>
	<rect x="46" y="68" class="st2" width="38" height="49"/>
	<rect x="-209.5" y="-8.5" class="st29" width="292" height="100"/>
	<ellipse class="st30" cx="-805" cy="-1" rx="82" ry="56"/>
	<ellipse class="st31" cx="-804.5" cy="-13.5" rx="60" ry="28"/>
	<path class="st30" d="M-882,40c0,0,30,41,72,38s71-16,78-42s23,10,23,10v18h-14v28c0,0-35,34-82,32S-899,94-882,40z"/>
	<path class="st30" d="M-877.5,86.8c0,0-21.5,8.2-22.5,30.2s34,7,34,7l11-25L-877.5,86.8z"/>
	<path class="st30" d="M-732,87c0,0,23,12,23,30s-29,12-29,12s5-30-9-30"/>
	<path class="st30" d="M-887,32c0,0-20,9-17,29s27-1,27-1L-887,32z"/>
	<rect x="-994" y="-230" class="st32" width="90" height="90"/>
	<rect x="-994.5" y="-273.5" class="st32" width="90" height="43"/>
	<rect x="-900" y="-244" class="st32" width="88" height="35"/>
	<rect x="-797.5" y="-180.5" class="st33" width="23" height="41"/>
	<rect x="-677.5" y="-184.5" class="st33" width="61" height="45"/>
	<rect x="-900" y="-209" class="st32" width="88" height="69"/>
	<rect x="-797" y="-235" class="st33" width="184" height="61"/>
	<rect x="-890.5" y="-197.5" class="st34" width="34" height="23"/>
	<rect x="-797" y="-252" class="st35" width="82" height="61"/>
	<rect x="-790" y="-235" class="st13" width="67" height="31"/>
	<rect x="-779" y="-191" class="st35" width="43" height="6"/>
	<rect x="-598.5" y="-177.5" class="st33" width="23" height="41"/>
	<rect x="-480.5" y="-181.5" class="st33" width="61" height="45"/>
	<rect x="-600" y="-232" class="st33" width="184" height="61"/>
	<rect x="-400" y="-273" class="st36" width="75" height="69"/>
	<rect x="-303" y="-273" class="st33" width="82" height="69"/>
	<polyline class="st37" points="-400.5,-273.5 -360.5,-296.5 -325.5,-273.5 	"/>
	<polyline class="st37" points="-299.5,-273.5 -259.5,-296.5 -224.5,-273.5 	"/>
	<rect x="-387.5" y="-262.5" class="st35" width="53" height="43"/>
	<rect x="-288" y="-260" class="st35" width="53" height="43"/>
	<text transform="matrix(1 0 0 1 -370.3682 -238.688)" class="st13" style="font-family:'MyriadPro-Regular'; font-size:12px;">A+</text>
	<rect x="-112" y="-275" class="st38" width="392" height="132"/>
	<rect x="-209" y="-285" class="st39" width="91" height="63"/>
	<rect x="-209" y="-285" class="st40" width="91" height="25"/>
	<rect x="-208.5" y="-260.5" class="st41" width="91" height="41"/>
	
		<rect x="-24.5" y="-222.5" transform="matrix(-1 -3.907242e-11 3.907242e-11 -1 -30.4523 -425.5338)" class="st4" width="18.5" height="19.5"/>
	
		<rect x="-45.9" y="-222.5" transform="matrix(-1 -3.902357e-11 3.902357e-11 -1 -73.2528 -425.5338)" class="st5" width="18.5" height="19.5"/>
	
		<rect x="-67.3" y="-222.5" transform="matrix(-1 -3.902357e-11 3.902357e-11 -1 -116.0533 -425.5338)" class="st6" width="18.5" height="19.5"/>
	
		<rect x="-87.7" y="-222.5" transform="matrix(-1 -3.902357e-11 3.902357e-11 -1 -156.9083 -425.5338)" class="st7" width="18.5" height="19.5"/>
	
		<rect x="59.2" y="-222.5" transform="matrix(-1 -3.907242e-11 3.907242e-11 -1 136.8587 -425.5338)" class="st4" width="18.5" height="19.5"/>
	
		<rect x="37.8" y="-222.5" transform="matrix(-1 -3.902357e-11 3.902357e-11 -1 94.0582 -425.5338)" class="st5" width="18.5" height="19.5"/>
	
		<rect x="16.4" y="-222.5" transform="matrix(-1 -3.902357e-11 3.902357e-11 -1 51.2577 -425.5338)" class="st6" width="18.5" height="19.5"/>
	
		<rect x="-4" y="-222.5" transform="matrix(-1 -3.902357e-11 3.902357e-11 -1 10.4027 -425.5338)" class="st7" width="18.5" height="19.5"/>
	<rect x="-85.7" y="-197.1" class="st4" width="18.5" height="19.5"/>
	<rect x="-64.3" y="-197.1" class="st5" width="18.5" height="19.5"/>
	<rect x="-42.9" y="-197.1" class="st6" width="18.5" height="19.5"/>
	<rect x="-22.5" y="-197.1" class="st7" width="18.5" height="19.5"/>
	<rect x="-4" y="-197.1" class="st4" width="18.5" height="19.5"/>
	<rect x="17.4" y="-197.1" class="st5" width="18.5" height="19.5"/>
	<rect x="38.8" y="-197.1" class="st6" width="18.5" height="19.5"/>
	<rect x="59.2" y="-197.1" class="st7" width="18.5" height="19.5"/>
	
		<rect x="170.1" y="-222.5" transform="matrix(-1 -3.907242e-11 3.907242e-11 -1 358.6431 -425.5338)" class="st4" width="18.5" height="19.5"/>
	
		<rect x="148.7" y="-222.5" transform="matrix(-1 -3.902357e-11 3.902357e-11 -1 315.8426 -425.5338)" class="st5" width="18.5" height="19.5"/>
	
		<rect x="127.3" y="-222.5" transform="matrix(-1 -3.902357e-11 3.902357e-11 -1 273.0421 -425.5338)" class="st6" width="18.5" height="19.5"/>
	
		<rect x="106.9" y="-222.5" transform="matrix(-1 -3.902357e-11 3.902357e-11 -1 232.1871 -425.5338)" class="st7" width="18.5" height="19.5"/>
	
		<rect x="253.7" y="-222.5" transform="matrix(-1 -3.907242e-11 3.907242e-11 -1 525.9542 -425.5338)" class="st4" width="18.5" height="19.5"/>
	
		<rect x="232.3" y="-222.5" transform="matrix(-1 -3.902357e-11 3.902357e-11 -1 483.1537 -425.5338)" class="st5" width="18.5" height="19.5"/>
	
		<rect x="210.9" y="-222.5" transform="matrix(-1 -3.902357e-11 3.902357e-11 -1 440.3531 -425.5338)" class="st6" width="18.5" height="19.5"/>
	
		<rect x="190.5" y="-222.5" transform="matrix(-1 -3.902357e-11 3.902357e-11 -1 399.4981 -425.5338)" class="st7" width="18.5" height="19.5"/>
	<rect x="108.8" y="-197.1" class="st4" width="18.5" height="19.5"/>
	<rect x="130.2" y="-197.1" class="st5" width="18.5" height="19.5"/>
	<rect x="151.6" y="-197.1" class="st6" width="18.5" height="19.5"/>
	<rect x="172" y="-197.1" class="st7" width="18.5" height="19.5"/>
	<rect x="190.5" y="-197.1" class="st4" width="18.5" height="19.5"/>
	<path class="st42" d="M215.5,184.5c0,0-13,4-13,35s35,22,35,22s22-7,19-14s8-29,2-34S222.5,177.5,215.5,184.5z"/>
	<rect x="211.9" y="-197.1" class="st5" width="18.5" height="19.5"/>
	<rect x="233.3" y="-197.1" class="st6" width="18.5" height="19.5"/>
	<rect x="253.7" y="-197.1" class="st7" width="18.5" height="19.5"/>
	<rect x="-112.5" y="-274.5" class="st43" width="194.5" height="131.1"/>
	<rect x="86.4" y="-274.1" class="st44" width="193.6" height="131.1"/>
	<ellipse class="st45" cx="230" cy="207" rx="18" ry="13"/>
	<polygon class="st46" points="193,175 182,189 204,189 207,207 225.5,195.2 230,207 240,204 251,195 279,191 267,175 279,165 
		267,156 267,140 248,140 231,123 215,137 193,137 203,155 178,161 	"/>
	<polygon class="st47" points="230.5,180.2 214.4,190.5 212.5,179 202.6,179 206.5,174 198.4,166.4 218.1,161.7 210,147 218.8,147 
		230.5,136.7 243.9,150 257,150 257,161 262.9,165.4 253.3,173.4 260.9,183.5 246.8,185.5 235.9,194.4 	"/>
	<path class="st42" d="M-965.5,185.5c0,0-13,4-13,35s35,22,35,22s22-7,19-14s8-29,2-34S-958.5,178.5-965.5,185.5z"/>
	<ellipse class="st45" cx="-951" cy="208" rx="18" ry="13"/>
	<polygon class="st46" points="-988,176 -999,190 -977,190 -974,208 -955.5,196.2 -951,208 -941,205 -930,196 -902,192 -914,176 
		-902,166 -914,157 -914,141 -933,141 -950,124 -966,138 -988,138 -978,156 -1003,162 	"/>
	<polygon class="st47" points="-950.5,181.2 -966.6,191.5 -968.5,180 -978.4,180 -974.5,175 -982.6,167.4 -962.9,162.7 -971,148 
		-962.2,148 -950.5,137.7 -937.1,151 -924,151 -924,162 -918.1,166.4 -927.7,174.4 -920.1,184.5 -934.2,186.5 -945.1,195.4 	"/>
</g>
<g id="Layer_2">
	<g id="blastoise">
		<circle class="st48" cx="36.7" cy="36.4" r="34.8"/>
		<path class="st49" d="M1.9,38.5c0,0-1.7-38.1,34.8-38.1c39,0,34.8,38.1,34.8,38.1H1.9z"/>
		<circle cx="36.7" cy="36.4" r="11.7"/>
		<circle class="st21" cx="36.7" cy="36.4" r="8.4"/>
	</g>
</g>
<g id="Layer_3" class="st0">
	<g id="charizard" class="st13">
		<circle class="st48" cx="-61.7" cy="36.4" r="34.8"/>
		<path class="st49" d="M-96.5,38.5c0,0-1.7-38.1,34.8-38.1c39,0,34.8,38.1,34.8,38.1H-96.5z"/>
		<circle cx="-61.7" cy="36.4" r="11.7"/>
		<circle class="st21" cx="-61.7" cy="36.4" r="8.4"/>
	</g>
</g>
<g id="Layer_4" class="st0">
	<g id="venasaur" class="st13">
		<circle class="st48" cx="-157.2" cy="35.9" r="34.8"/>
		<path class="st49" d="M-192,38c0,0-1.7-38.1,34.8-38.1c39,0,34.8,38.1,34.8,38.1H-192z"/>
		<circle cx="-157.2" cy="35.9" r="11.7"/>
		<circle class="st21" cx="-157.2" cy="35.9" r="8.4"/>
	</g>
</g>
</svg>
