<?xml version="1.0" encoding="utf-8"?>
<!-- Generator: Adobe Illustrator 23.0.2, SVG Export Plug-In . SVG Version: 6.00 Build 0)  -->
<svg version="1.1" id="Layer_1" xmlns="http://www.w3.org/2000/svg" xmlns:xlink="http://www.w3.org/1999/xlink" x="0px" y="0px"
	 viewBox="0 0 1728 704.5" style="enable-background:new 0 0 1728 704.5;" xml:space="preserve">
<style type="text/css">
	.st0{fill:none;}
	.st1{fill:#73BDFF;stroke:#45C5FF;stroke-width:10;stroke-miterlimit:10;}
	.st2{fill:#5C2500;stroke:#000000;stroke-width:1.1204;stroke-miterlimit:10;}
	.st3{fill:#002D73;}
	.st4{fill:#001A5C;stroke:#000000;stroke-width:1.1204;stroke-miterlimit:10;}
	.st5{fill:#170B00;}
	.st6{fill:#E9A07B;}
	.st7{stroke:#000000;stroke-width:1.5934;stroke-miterlimit:10;}
	.st8{fill:#5C4A00;}
	.st9{fill:#FFFFFF;}
	.st10{opacity:0.3;}
	.st11{opacity:0.2;}
	.st12{fill:#FF8BAA;}
	.st13{fill:#FFFFFF;stroke:#000000;stroke-width:1.1204;stroke-miterlimit:10;}
	.st14{fill:#D0A200;}
	.st15{fill:#FF5445;}
</style>
<g id="proff">
	<rect y="620.8" class="st0" width="1728" height="83.7"/>
	<rect y="352.2" class="st0" width="1728" height="268.5"/>
	<rect y="146.7" class="st0" width="1728" height="205.5"/>
	<rect class="st0" width="1728" height="146.7"/>
	<ellipse class="st1" cx="854.7" cy="632.8" rx="272.1" ry="61.1"/>
	<path class="st2" d="M764,612.7c0,0-41.4,11.8-28.8,26.9s77.1,8.8,77.1,8.8l37.7-17.2l-11.3-39.5"/>
	<path class="st2" d="M940.7,614.3c0,0,41.4,11.8,28.8,26.9s-77.1,8.8-77.1,8.8l-37.7-17.2l11.3-39.5"/>
	<path d="M780.9,285.1l7.1,169.1h140V278C928,278,768.5,270,780.9,285.1z"/>
	<path class="st3" d="M802,277.7l40.7,95.9l59.1-95.9C901.9,277.7,822.3,238.6,802,277.7z"/>
	<path class="st4" d="M750.5,459.2h201.8v128.7c0,0-5.2,34.1-49.9,34.1S850,586.7,850,586.7l-4-66.9l-7.2,71.9
		c0,0,3.2,34.1-48.3,30.3s-40-57.4-40-57.4V459.2z"/>
	<rect x="771.8" y="439" class="st5" width="162.8" height="24"/>
	<g id="head">
		<path class="st6" d="M919,166.8c0,0,1.2,34-8.6,39.9C900.6,212.6,919,166.8,919,166.8z"/>
		<path class="st7" d="M838.2,301.8c0,0-67.3,4.7-63.4-125.4c-7.2-5.4-10.2-16.8-10.8-37.1s9.6-79.6,43.7-89.7
			C814.3,40,830.5,37,830.5,37h26.9c0,0,15,12,15,25.7s10.8,1.2,10.8,1.2s16.8-4.2,20.3-0.6s9,11.4,8.4,20.3s9,0,9,0
			s-0.6,10.8-6,14.9c-5.4,4.2,6,14.4,6,14.4v10.2l7.2,4.2l-7.2,13.2l-1.8,26.3l-7.8,17.9c0,0-0.8,63.4-10.6,83.7
			C890.9,288.9,856.6,300.1,838.2,301.8z"/>
		<path class="st6" d="M782.6,147.7c0,0-4.8-61,55-59.2c59.8,1.8,58,25.1,57.4,46.1c12,10.2,5.6,25.1,5.6,25.1l1.7,26.3
			c0,0-12.7,38.3-25.8,41.3c-4.8-13.8-26.9-20.9-26.9-20.9s-8.4-0.6-12.6,4.2c-2.4-7.2-12.6-7.2-12.6-7.2s-22.1,15.6-25.1,23.9
			c-3,8.4-17.5-26.9-16.8-29.9C783.2,194.4,778.4,154.9,782.6,147.7z"/>
		<path d="M788,155.5c0,0,11.4-25.7,36.5-14.9c2.8,3-2.6,3.9-2.6,3.9S803.3,136.2,788,155.5z"/>
		<path d="M848.6,145.3c0,0,5.8-7.4,10.5-7.4c4,0,15.7,0,15.7,0s15,5.6,14.6,17.6c-2.9-4.6-14.1-12.4-14.1-12.4s-15.5-3.4-22.9,4.9
			C849.3,151.4,848.6,145.3,848.6,145.3z"/>
		<path d="M854.4,157c0,0,15-7.8,28.1,0c-4.2,5.1-5.4,9.9-14.1,10.2S854.4,157,854.4,157z"/>
		<path d="M823.1,155.3c0,0-15.8-5.9-27.9,3.4c4.8,4.5,6.5,9.1,15.2,8.4C819,166.3,823.1,155.3,823.1,155.3z"/>
		<circle class="st8" cx="809.1" cy="160.3" r="6.3"/>
		<circle class="st8" cx="869" cy="159.8" r="6"/>
		<circle class="st9" cx="869" cy="159.8" r="3.2"/>
		<circle class="st9" cx="809.1" cy="160.3" r="3.3"/>
		<circle cx="869" cy="159.8" r="1.3"/>
		<circle cx="809.1" cy="160.3" r="1.4"/>
		<g class="st10">
			
				<image style="overflow:visible;enable-background:new    ;" width="113" height="118" xlink:href="59844B2188B28F2B.png"  transform="matrix(1 0 0 1 753 105)">
			</image>
		</g>
		<g class="st10">
			
				<image style="overflow:visible;enable-background:new    ;" width="114" height="118" xlink:href="59844B2188B28F29.png"  transform="matrix(1 0 0 1 809 103)">
			</image>
		</g>
		<circle cx="828.7" cy="196.8" r="2.5"/>
		<ellipse transform="matrix(0.9557 -0.2942 0.2942 0.9557 -20.468 257.06)" cx="844.2" cy="196.6" rx="3.4" ry="2.8"/>
		<g class="st11">
			
				<image style="overflow:visible;enable-background:new    ;" width="160" height="174" xlink:href="59844B2188B28F2F.png"  transform="matrix(1 0 0 1 764 57)">
			</image>
		</g>
		<path d="M860.8,155.6l0.6-2.5c0,0-0.1,2.7,0.7,2.5c0.8-0.3,0.7-2.7,0.7-2.7l0.7,2.2l0.9-2.2v1.7l1.6-2l-0.6,1.5l1.8-1.5l-0.7,1.5
			l1.8-1.5l-0.2,1l1.9-1l-0.3,0.7l1.3-0.4l1.1-0.3l-0.8,1c0,0,2.7-1.4,2.3-1s-1,1-1,1l1.7-0.8l-0.7,0.8l2.5-0.4l-0.9,0.9
			c0,0,2.7-1.3,2.4-0.9s-1.2,1.4-1.2,1.4l2.7-1l-1.3,1.2l2.4-0.8l-1.6,1.6l2.7-1.1l-2.2,1.6C879.4,156.1,872.2,153,860.8,155.6z"/>
		<path d="M818.4,156.4l-0.8-2.8c0,0,0.3,3.2-0.7,2.9c-1-0.2-1-3.1-1-3.1l-0.6,2.6l-1.2-2.5l0.1,1.9l-1.9-2.2l0.7,1.7l-2.1-1.7
			l0.8,1.7l-2.1-1.7l0.3,1.2l-2.2-1.1l0.4,0.7l-1.5-0.3l-1.2-0.3l1,1.1c0,0-3.1-1.5-2.7-1.1c0.4,0.4,1.2,1.1,1.2,1.1l-2-0.9l0.9,0.9
			l-2.8-0.3l1,1c0,0-3-1.4-2.7-0.9c0.3,0.5,1.4,1.5,1.4,1.5l-3.1-1l1.5,1.4l-2.7-0.7l1.9,1.7l-3.1-1.1l2.5,1.7
			C797.7,158.1,805.6,154.1,818.4,156.4z"/>
		<g class="st10">
			
				<image style="overflow:visible;enable-background:new    ;" width="115" height="123" xlink:href="59844B2188B28F28.png"  transform="matrix(1 0 0 1 818 126)">
			</image>
		</g>
		<g class="st11">
			
				<image style="overflow:visible;enable-background:new    ;" width="106" height="111" xlink:href="59844B2188B28F26.png"  transform="matrix(1 0 0 1 754 132)">
			</image>
		</g>
		<path class="st12" d="M823.2,228.5c0,0,7.5,6.5,13.7,6.1c6.3-0.4,17.5-6.1,17.5-6.1S832.8,220.2,823.2,228.5z"/>
		<g class="st10">
			
				<image style="overflow:visible;enable-background:new    ;" width="108" height="82" xlink:href="59844B2188B28F27.png"  transform="matrix(1 0 0 1 754 126)">
			</image>
		</g>
		<g class="st10">
			
				<image style="overflow:visible;enable-background:new    ;" width="107" height="82" xlink:href="59844B2188B28F37.png"  transform="matrix(1 0 0 1 814 123)">
			</image>
		</g>
	</g>
	<path class="st6" d="M637.4,344.9c0,0-44.2-1.8-34,17.5s27.1,13.6,27.1,13.6s-22.7,20.8-14.5,25.8c8.2,5,21.6,49.8,36.4,49.2
		s45,7,59.5,0c14.5-7,58.2-110-14.5-107.9C624.7,345.3,637.4,344.9,637.4,344.9z"/>
	<path class="st6" d="M1041.8,410c0,0-13.5,73.2-59.7,69.4c-46.3-3.8,39.5-80.8,39.5-80.8L1041.8,410z"/>
	<path class="st13" d="M790.5,268.5c0,0-81.7,27.9-93.1,74.6s94.6,25.2-8.8,108.5c27.8-7.6,37.8-7.6,37.8-7.6v106
		c0,0,62.4,44.2,81.7,6.3C806.6,512.2,826.8,291.1,790.5,268.5z"/>
	<path class="st13" d="M900.6,268.5c0,0,85.7,26.7,95.8,49.4s45.4,92.1,45.4,92.1l-55.5,25.2l-5-83.4l1.3,193.1c0,0-40.8,29-86,16.4
		C902.3,529.9,900.6,268.5,900.6,268.5z"/>
	<rect x="831.2" y="439" class="st14" width="36.2" height="24"/>
	<circle class="st15" cx="663.3" cy="365" r="32.8"/>
	<path class="st9" d="M630.5,367.9c0,0,1.6,29.1,32.8,30c21.3-0.4,33.3-17.9,32.8-29C682.3,368.7,630.5,367.9,630.5,367.9z"/>
	<path d="M695.2,368.8h-63.9c-0.5,0-0.9-0.4-0.9-0.9v-4.7c0-0.5,0.4-0.9,0.9-0.9h63.9c0.5,0,0.9,0.4,0.9,0.9v4.7
		C696.1,368.4,695.7,368.8,695.2,368.8z"/>
	<circle cx="663.3" cy="365" r="11"/>
	<circle class="st9" cx="663.3" cy="365" r="7.7"/>
</g>
</svg>
