<?xml version="1.0" encoding="utf-8"?>
<!-- Generator: Adobe Illustrator 23.0.2, SVG Export Plug-In . SVG Version: 6.00 Build 0)  -->
<svg version="1.1" id="Layer_1" xmlns="http://www.w3.org/2000/svg" xmlns:xlink="http://www.w3.org/1999/xlink" x="0px" y="0px"
	 viewBox="0 0 226 282" style="enable-background:new 0 0 226 282;" xml:space="preserve">
<style type="text/css">
	.st0{fill:#738CFF;stroke:#000000;stroke-miterlimit:10;}
	.st1{fill:#FFFCD0;stroke:#000000;stroke-miterlimit:10;}
	.st2{fill:#F9EFA7;}
	.st3{fill:none;stroke:#000000;stroke-miterlimit:10;}
	.st4{stroke:#000000;stroke-miterlimit:10;}
	.st5{fill:#453000;stroke:#000000;stroke-miterlimit:10;}
</style>
<ellipse class="st0" cx="120.5" cy="163" rx="77.5" ry="69"/>
<path class="st1" d="M86.8,113.6c0,0-38.8,102.4,34.2,85.4s51-33,28-88S86.8,113.6,86.8,113.6z"/>
<ellipse class="st0" cx="120" cy="94" rx="42" ry="32"/>
<path class="st0" d="M50.6,145.2c0,0,18.1,37.9,35.4,32.4c17.2-5.5,1.3-41.1-7.1-45.1"/>
<path class="st0" d="M163,132.8c0,0-22.8,39.7-6.6,52.1c16.2,12.4,38.3-23.9,36.5-33.9"/>
<polygon class="st2" points="71.6,174.1 76.5,173.2 81.3,172.3 79.7,177 78,181.6 74.8,177.8 "/>
<polygon class="st2" points="81.6,175.5 86,173.2 90.3,170.9 90.2,175.8 90,180.7 85.8,178.1 "/>
<polygon class="st2" points="87,165.9 90.1,162 93.1,158.1 94.9,162.7 96.8,167.3 91.9,166.6 "/>
<polygon class="st2" points="150.9,173 154.2,176.6 157.6,180.2 152.8,181.3 148,182.4 149.5,177.7 "/>
<polygon class="st2" points="155.1,182.2 159.4,184.5 163.7,186.9 159.5,189.5 155.3,192 155.2,187.1 "/>
<polygon class="st2" points="166.1,181.5 171,181.9 175.9,182.3 173.1,186.3 170.3,190.4 168.2,185.9 "/>
<ellipse class="st1" cx="86" cy="224.5" rx="27.5" ry="26"/>
<ellipse class="st1" cx="148" cy="224.5" rx="27.5" ry="26"/>
<path class="st1" d="M81.3,103.5l21.2-29L120,89l19.5-14.5l19.9,29c0,0-7.9,21-38.9,22S84.1,108.4,81.3,103.5z"/>
<line class="st3" x1="91.5" y1="103.5" x2="108.5" y2="103.5"/>
<line class="st3" x1="123.5" y1="103.5" x2="143.5" y2="103.5"/>
<circle class="st4" cx="117" cy="117" r="2.5"/>
<circle class="st5" cx="86.5" cy="234.5" r="10"/>
<circle class="st5" cx="146.5" cy="234.5" r="10"/>
<polygon class="st2" points="165,217.6 160.5,213.2 156,208.9 162,207.2 168,205.4 166.5,211.5 "/>
<polygon class="st2" points="159,206.2 153.4,203.4 147.7,200.7 152.9,197.2 158.1,193.7 158.6,199.9 "/>
<polygon class="st2" points="145,207.8 138.8,207.5 132.5,207.3 135.8,202 139.2,196.7 142.1,202.2 "/>
<polygon class="st2" points="99.8,208.4 93.8,206.7 87.8,204.9 92.4,200.6 96.9,196.2 98.4,202.3 "/>
<polygon class="st2" points="89.3,201 83,201.2 76.7,201.4 79.7,195.9 82.7,190.4 86,195.7 "/>
<polygon class="st2" points="77.6,208.9 71.9,211.6 66.3,214.3 66.8,208.1 67.3,201.8 72.5,205.4 "/>
<path class="st0" d="M83,79.7c0,0-2-26.7,4-25.7s18,15,18,15"/>
<path class="st0" d="M149.7,79.7c0,0,2-26.7-4-25.7s-18,15-18,15"/>
</svg>
