<?xml version="1.0" encoding="utf-8"?>
<!-- Generator: Adobe Illustrator 23.0.2, SVG Export Plug-In . SVG Version: 6.00 Build 0)  -->
<svg version="1.1" id="Layer_1" xmlns="http://www.w3.org/2000/svg" xmlns:xlink="http://www.w3.org/1999/xlink" x="0px" y="0px"
	 viewBox="0 0 226 282" style="enable-background:new 0 0 226 282;" xml:space="preserve">
<style type="text/css">
	.st0{fill:#825906;}
	.st1{fill:#CEBEA1;}
	.st2{fill:#158715;}
</style>
<path class="st0" d="M150.4,50.5c5.8,0,10.6,4.8,10.6,10.6v210.3c0,5.8-4.8,10.6-10.6,10.6H80.6c-5.8,0-10.6-4.8-10.6-10.6V61.1"/>
<g>
	<ellipse class="st1" cx="100.5" cy="193" rx="8" ry="12.5"/>
	<path d="M100.5,181c4.1,0,7.5,5.4,7.5,12s-3.4,12-7.5,12s-7.5-5.4-7.5-12S96.4,181,100.5,181 M100.5,180c-4.7,0-8.5,5.8-8.5,13
		s3.8,13,8.5,13s8.5-5.8,8.5-13S105.2,180,100.5,180L100.5,180z"/>
</g>
<g>
	<ellipse class="st1" cx="142" cy="111" rx="11.5" ry="17.5"/>
	<path d="M142,94c6.1,0,11,7.6,11,17s-4.9,17-11,17s-11-7.6-11-17S135.9,94,142,94 M142,93c-6.6,0-12,8.1-12,18s5.4,18,12,18
		s12-8.1,12-18S148.6,93,142,93L142,93z"/>
</g>
<g>
	<ellipse class="st1" cx="84.5" cy="96" rx="7" ry="14.5"/>
	<path d="M84.5,82C88,82,91,88.4,91,96s-3,14-6.5,14S78,103.6,78,96S81,82,84.5,82 M84.5,81c-4.1,0-7.5,6.7-7.5,15s3.4,15,7.5,15
		s7.5-6.7,7.5-15S88.6,81,84.5,81L84.5,81z"/>
</g>
<g>
	<circle class="st2" cx="175.5" cy="50.5" r="50.5"/>
</g>
<g>
	<circle class="st2" cx="50.5" cy="50.5" r="50.5"/>
</g>
</svg>
