<?xml version="1.0" encoding="utf-8"?>
<!-- Generator: Adobe Illustrator 23.0.2, SVG Export Plug-In . SVG Version: 6.00 Build 0)  -->
<svg version="1.1" id="Layer_1" xmlns="http://www.w3.org/2000/svg" xmlns:xlink="http://www.w3.org/1999/xlink" x="0px" y="0px"
	 viewBox="0 0 1548.8 266.4" style="enable-background:new 0 0 1548.8 266.4;" xml:space="preserve">
<style type="text/css">
	.st0{fill:#FFFFFF;stroke:#000000;stroke-width:6.8118;stroke-miterlimit:10;}
	.st1{fill:#FFFFFF;stroke:#000000;stroke-width:9.5365;stroke-miterlimit:10;}
</style>
<g id="textbox">
	<path class="st0" d="M1655.8,331.9h-1704c-6.6,0-12-5.4-12-12V-47.6c0-6.6,5.4-12,12-12h1704c6.6,0,12,5.4,12,12v367.4
		C1667.8,326.5,1662.4,331.9,1655.8,331.9z"/>
	<path class="st1" d="M-46.5,316.3V-44c0-1.1,0.9-2,2-2h1696.6c1.1,0,2,0.9,2,2v360.3c0,1.1-0.9,2-2,2H-44.5
		C-45.6,318.3-46.5,317.4-46.5,316.3z"/>
</g>
</svg>
