<?xml version="1.0" encoding="utf-8"?>
<!-- Generator: Adobe Illustrator 23.0.2, SVG Export Plug-In . SVG Version: 6.00 Build 0)  -->
<svg version="1.1" id="Layer_1" xmlns="http://www.w3.org/2000/svg" xmlns:xlink="http://www.w3.org/1999/xlink" x="0px" y="0px"
	 viewBox="0 0 1728 407.12" style="enable-background:new 0 0 1728 407.12;" xml:space="preserve">
<style type="text/css">
	.st0{fill:#FFFFFF;stroke:#000000;stroke-width:6.8118;stroke-miterlimit:10;}
	.st1{fill:#FFFFFF;stroke:#000000;stroke-width:9.5365;stroke-miterlimit:10;}
	.st2{enable-background:new    ;}
	.st3{font-family:'VT323-Regular';}
	.st4{font-size:120px;}
</style>
<g id="textbox">
	<path class="st0" d="M1716,391.42H12c-6.6,0-12-5.4-12-12V12C0,5.4,5.4,0,12,0h1704c6.6,0,12,5.4,12,12v367.42
		C1728,386.02,1722.6,391.42,1716,391.42z"/>
	<path class="st1" d="M13.7,375.88V15.54c0-1.1,0.9-2,2-2h1696.6c1.1,0,2,0.9,2,2v360.34c0,1.1-0.9,2-2,2H15.7
		C14.6,377.88,13.7,376.98,13.7,375.88z"/>
</g>
<text transform="matrix(1.3445 0 0 1 60.1743 153.1685)" class="st2"><tspan x="0" y="0" class="st3 st4">Use the W,A,S,D keys to</tspan><tspan x="0" y="144" class="st3 st4">move. </tspan></text>
<text transform="matrix(1.3445 0 0 1 60.1743 297.1685)" class="st3 st4"> </text>
</svg>
